<svg xmlns="http://www.w3.org/2000/svg" xmlns:xlink="http://www.w3.org/1999/xlink" version="1.1" id="Layer_1" x="0px" y="0px" viewBox="0 0 230 50.8" style="enable-background:new 0 0 230 50.8;" xml:space="preserve">
<style type="text/css">
	.st0{fill:#2FC7F7;}
	.st1{fill:#0066A1;}
</style>
<g>
	<path class="st0" d="M125.3,43.1c-0.2-0.2-0.3-0.4-0.4-0.6c-3-4-6-8.1-9.1-12.1c-0.2-0.3-0.3-0.5,0-0.9c3-4,6-8,9-12   c0.1-0.2,0.3-0.4,0.4-0.6c-2.5,0-4.8,0-7.2,0c-0.4,0-0.7,0.1-1,0.5c-1.7,2.4-3.5,4.7-5.2,7.1c-0.1,0.1-0.2,0.3-0.3,0.4   c-0.1-0.1-0.2-0.2-0.3-0.3c-1.8-2.4-3.6-4.8-5.3-7.2c-0.2-0.3-0.4-0.4-0.8-0.4c-2.2,0-4.5,0-6.7,0c-0.2,0-0.3,0-0.5,0   c0.1,0.2,0.2,0.3,0.3,0.5c3,4,6,8.1,8.9,12.1c0.2,0.3,0.3,0.5,0,0.9c-3.1,4.1-6.1,8.1-9.2,12.2c-0.1,0.2-0.2,0.3-0.4,0.5   c0.1,0,0.2,0,0.3,0c2.4,0,4.8,0,7.2,0c0.2,0,0.4-0.2,0.6-0.3c1.3-1.7,2.5-3.4,3.8-5.1c0.7-0.9,1.4-1.8,2.1-2.8   c0.1,0.2,0.3,0.3,0.4,0.5c1.8,2.4,3.6,4.9,5.4,7.3c0.2,0.3,0.4,0.4,0.7,0.4c2.3,0,4.6,0,6.8,0C125,43.1,125.1,43.1,125.3,43.1z"/>
	<path class="st0" d="M62.5,36.5c-0.2,0.1-0.4,0.2-0.5,0.3c-1.1,0.6-2.3,0.9-3.6,0.9c-1.2,0-1.9-0.6-2.1-1.8   c-0.1-0.6-0.2-1.2-0.2-1.8c0-3.6,0-7.2,0-10.8c0-0.2,0-0.4,0-0.6c0.2,0,0.4,0,0.6,0c1.7,0,3.4,0,5.1,0c0.5,0,0.6-0.2,0.7-0.6   c0.3-1,0.6-2,0.9-3c0.2-0.7,0.4-1.5,0.7-2.3c-2.7,0-5.3,0-8,0c0-2.8,0-5.5,0-8.3c-0.1,0-0.1,0-0.2,0c-2.4,0.7-4.7,1.3-7,2   c-0.1,0-0.3,0.3-0.3,0.5c0,1.7,0,3.5,0,5.2c0,0.2,0,0.4,0,0.6c-1.6,0-3.2,0-4.8,0c0,2,0,3.9,0,5.8c1.6,0,3.2,0,4.8,0   c0,0.3,0,0.5,0,0.6c0,4.4,0,8.7,0,13.1c0,3.6,2.1,6.2,5.6,6.9c2.7,0.6,5.3,0.2,7.9-0.6c0.9-0.3,1.7-0.7,2.7-1.1   C64,39.9,63.3,38.2,62.5,36.5z"/>
	<path class="st0" d="M74.8,43.1c0-0.2,0-0.4,0-0.6c0-5.2,0-10.5,0-15.7c0-2.1,0-2.1,1.9-3.2c1.3-0.7,2.6-1.1,4-0.7   c0.8,0.2,1.6,0.5,2.4,0.8c0.8-2,1.7-4.1,2.6-6.1c-0.4-0.2-0.7-0.4-1-0.5c-2.7-1.2-5.3-0.8-7.7,0.8c-0.9,0.6-1.6,1.2-2.5,1.9   c-0.2-0.7-0.5-1.5-0.7-2.2c-0.1-0.3-0.2-0.4-0.6-0.4c-1.8,0-3.6,0-5.4,0c-0.1,0-0.3,0-0.4,0c0,8.7,0,17.4,0,26.2   C69.8,43.1,72.2,43.1,74.8,43.1z"/>
	<path class="st0" d="M33.4,16.9c0,8.8,0,17.4,0,26.1c2.5,0,4.9,0,7.4,0c0-8.7,0-17.4,0-26.1C38.3,16.9,35.8,16.9,33.4,16.9z"/>
	<path class="st0" d="M95.1,43.1c0-8.7,0-17.4,0-26.2c-2.5,0-4.9,0-7.4,0c0,8.7,0,17.4,0,26.2C90.1,43.1,92.6,43.1,95.1,43.1z"/>
	<path class="st0" d="M95.9,8.8c0-2.5-1.9-4.3-4.5-4.3c-2.6,0-4.6,1.9-4.6,4.3c0,2.5,2,4.4,4.6,4.4C93.9,13.2,95.9,11.3,95.9,8.8z"/>
	<path class="st0" d="M41.6,8.8c0-2.5-1.9-4.3-4.5-4.3c-2.6,0-4.6,1.9-4.6,4.3c0,2.6,1.9,4.4,4.6,4.4C39.7,13.2,41.6,11.3,41.6,8.8z   "/>
	<path class="st0" d="M3.3,6.6c0.2,0,0.4,0,0.5,0c3.8,0,7.5,0,11.3,0c2.4,0,4.7,0.5,6.8,1.7c4.4,2.6,5.7,8.3,2.8,12.4   c-0.4,0.5-0.8,1-1.3,1.4c-0.5,0.4-1,0.7-1.5,1.1c0.2,0.1,0.3,0.1,0.5,0.2c4.2,1.3,6.8,5.3,6.3,9.6c-0.6,4.8-3.7,8.3-8.6,9.5   c-1.3,0.3-2.7,0.5-4.1,0.5c-4,0.1-8.1,0-12.1,0c-0.2,0-0.4,0-0.6,0C3.3,30.9,3.3,18.8,3.3,6.6z M10.9,36.9c1.6,0,3.1,0,4.6,0   c0.8,0,1.5-0.1,2.3-0.3c2.2-0.6,3.2-1.9,3.3-4.3c0.1-1.9-1-3.4-2.8-4.1c-0.5-0.2-1-0.3-1.5-0.3c-1.9-0.1-3.8-0.1-5.7-0.1   c0,0-0.1,0-0.1,0.1C10.9,30.8,10.9,33.8,10.9,36.9z M10.9,12.8c0,2.9,0,5.8,0,8.8c1.5-0.1,2.9,0,4.3-0.2c2.1-0.3,3.5-1.9,3.6-3.9   c0.1-2.1-1.1-3.8-3.2-4.4C14.1,12.6,12.5,12.9,10.9,12.8z"/>
	<path class="st0" d="M125.3,43.1c-0.2,0-0.4,0-0.5,0c-2.3,0-4.6,0-6.8,0c-0.3,0-0.5-0.1-0.7-0.4c-1.8-2.4-3.6-4.9-5.4-7.3   c-0.1-0.1-0.2-0.3-0.4-0.5c-0.7,0.9-1.4,1.8-2.1,2.8c-1.3,1.7-2.5,3.4-3.8,5.1c-0.1,0.2-0.4,0.3-0.6,0.3c-2.4,0-4.8,0-7.2,0   c-0.1,0-0.1,0-0.3,0c0.2-0.2,0.3-0.4,0.4-0.5c3.1-4.1,6.1-8.1,9.2-12.2c0.3-0.3,0.2-0.5,0-0.9c-3-4-6-8.1-8.9-12.1   c-0.1-0.1-0.2-0.3-0.3-0.5c0.2,0,0.4,0,0.5,0c2.2,0,4.5,0,6.7,0c0.4,0,0.6,0.1,0.8,0.4c1.8,2.4,3.5,4.8,5.3,7.2   c0.1,0.1,0.1,0.2,0.3,0.3c0.1-0.1,0.2-0.3,0.3-0.4c1.7-2.3,3.5-4.7,5.2-7.1c0.3-0.4,0.5-0.5,1-0.5c2.4,0,4.7,0,7.2,0   c-0.2,0.2-0.3,0.4-0.4,0.6c-3,4-6,8-9,12c-0.3,0.4-0.2,0.6,0,0.9c3,4,6,8.1,9.1,12.1C125.1,42.7,125.2,42.8,125.3,43.1z"/>
	<path class="st0" d="M62.5,36.5c0.7,1.7,1.4,3.4,2.2,5.2c-0.9,0.4-1.8,0.8-2.7,1.1c-2.6,0.8-5.2,1.2-7.9,0.6   c-3.5-0.7-5.6-3.4-5.6-6.9c0-4.4,0-8.7,0-13.1c0-0.2,0-0.4,0-0.6c-1.6,0-3.2,0-4.8,0c0-2,0-3.9,0-5.8c1.6,0,3.1,0,4.8,0   c0-0.2,0-0.4,0-0.6c0-1.7,0-3.5,0-5.2c0-0.2,0.1-0.4,0.3-0.5c2.3-0.7,4.7-1.4,7-2c0,0,0.1,0,0.2,0c0,2.7,0,5.5,0,8.3   c2.7,0,5.3,0,8,0c-0.2,0.8-0.4,1.5-0.7,2.3c-0.3,1-0.6,2-0.9,3c-0.1,0.4-0.3,0.6-0.7,0.6c-1.7,0-3.4,0-5.1,0c-0.2,0-0.4,0-0.6,0   c0,0.2,0,0.4,0,0.6c0,3.6,0,7.2,0,10.8c0,0.6,0.1,1.2,0.2,1.8c0.2,1.2,0.9,1.7,2.1,1.8c1.3,0,2.5-0.3,3.6-0.9   C62.2,36.7,62.3,36.6,62.5,36.5z"/>
	<path class="st0" d="M74.8,43.1c-2.5,0-5,0-7.4,0c0-8.7,0-17.4,0-26.2c0.1,0,0.3,0,0.4,0c1.8,0,3.6,0,5.4,0c0.4,0,0.5,0.1,0.6,0.4   c0.2,0.8,0.4,1.5,0.7,2.2c0.9-0.6,1.6-1.3,2.5-1.9c2.4-1.6,5-2,7.7-0.8c0.3,0.1,0.6,0.3,1,0.5c-0.9,2.1-1.7,4.1-2.6,6.1   c-0.8-0.3-1.6-0.6-2.4-0.8c-1.4-0.3-2.8,0-4,0.7c-1.9,1.1-1.9,1.1-1.9,3.2c0,5.2,0,10.5,0,15.7C74.8,42.6,74.8,42.8,74.8,43.1z"/>
	<path class="st0" d="M33.4,16.9c2.5,0,4.9,0,7.4,0c0,8.7,0,17.4,0,26.1c-2.5,0-4.9,0-7.4,0C33.4,34.4,33.4,25.7,33.4,16.9z"/>
	<path class="st0" d="M95.1,43.1c-2.5,0-4.9,0-7.4,0c0-8.7,0-17.4,0-26.2c2.5,0,4.9,0,7.4,0C95.1,25.6,95.1,34.3,95.1,43.1z"/>
	<path class="st0" d="M95.9,8.8c0,2.5-1.9,4.4-4.5,4.5c-2.6,0-4.6-1.9-4.6-4.4c0-2.5,2-4.3,4.6-4.3C94,4.5,95.9,6.3,95.9,8.8z"/>
	<path class="st0" d="M41.6,8.8c0,2.5-1.9,4.4-4.5,4.4c-2.6,0-4.6-1.9-4.6-4.4c0-2.5,2-4.3,4.6-4.3C39.7,4.5,41.6,6.3,41.6,8.8z"/>
</g>
<g>
	<path class="st1" d="M135,12.4c0.3-0.1,0.5-0.2,0.8-0.3c1.7-0.6,3.4-1.3,5.2-1.8c2.2-0.6,4.4-0.8,6.7-0.4c2.2,0.5,3.5,1.8,3.8,3.9   c0.2,1.4-0.2,2.6-1.1,3.7c-0.9,1.3-2.1,2.2-3.3,3.1c-1.8,1.4-3.7,2.7-5.5,4.1c-4.9,3.8-8.3,8.7-9.5,14.9c-0.2,1.2-0.4,2.4-0.6,3.6   c9.8,0,19.6,0,29.3,0c0-2.4,0-4.7,0-7.1c-6.1,0-12.2,0-18.3,0c0.1-0.2,0.1-0.4,0.2-0.5c0.5-1.2,1.2-2.3,2-3.2   c1.5-1.8,3.3-3.2,5.1-4.6c2.2-1.7,4.5-3.3,6.5-5.4c2.6-2.6,4.2-5.6,4.1-9.4c-0.2-4-1.9-7-5.5-8.9c-2.8-1.4-5.7-1.7-8.8-1.6   c-4.5,0.2-8.7,1.3-12.7,3.2c-0.1,0.1-0.2,0.1-0.3,0.2C133.5,8.1,134.2,10.2,135,12.4z"/>
	<path class="st1" d="M135,12.4c-0.7-2.2-1.4-4.3-2.1-6.4c0.1-0.1,0.2-0.1,0.3-0.2c4.1-1.8,8.3-3,12.7-3.2c3-0.1,6,0.2,8.8,1.6   c3.6,1.8,5.4,4.9,5.5,8.9c0.1,3.8-1.5,6.8-4.1,9.4c-2,2-4.3,3.6-6.5,5.4c-1.8,1.4-3.6,2.8-5.1,4.6c-0.8,1-1.5,2-2,3.2   c-0.1,0.2-0.1,0.3-0.2,0.5c6.1,0,12.2,0,18.3,0c0,2.4,0,4.7,0,7.1c-9.7,0-19.4,0-29.3,0c0.2-1.2,0.3-2.4,0.6-3.6   c1.2-6.2,4.6-11,9.5-14.9c1.8-1.4,3.7-2.7,5.5-4.1c1.2-0.9,2.4-1.9,3.3-3.1c0.8-1.1,1.2-2.3,1.1-3.7c-0.3-2.1-1.6-3.4-3.8-3.9   c-2.3-0.5-4.5-0.2-6.7,0.4c-1.8,0.5-3.5,1.2-5.2,1.8C135.5,12.1,135.3,12.3,135,12.4z"/>
	<path class="st1" d="M177.7,33.6c-6.1,0-12,0-18.1,0c0-0.8,0-1.5,0-2.3c0-0.9,0-1.8,0-2.7c0-0.2,0.1-0.5,0.2-0.6   c6.6-8.3,13.1-16.7,19.7-25c0.1-0.2,0.3-0.3,0.5-0.3c1.8,0,3.7,0,5.5,0c0,0,0.1,0,0.2,0c0,8,0,16,0,24.1c2,0,4,0,6,0   c0,2.2,0,4.4,0,6.7c-2,0-3.9,0-5.9,0c0,3.2,0,6.4,0,9.5c-2.7,0-5.4,0-8.1,0C177.7,40,177.7,36.8,177.7,33.6z M177.8,15.4   c-2.9,3.9-5.9,7.8-8.8,11.6c2.9,0,5.7,0,8.5,0C177.7,23,177.8,19.2,177.8,15.4z"/>
	<path class="st1" d="M214.4,29.2c-7.5,0-13.6-6.1-13.6-13.6c0-7.5,6.1-13.6,13.6-13.6c7.5,0,13.6,6.1,13.6,13.6   C228,23.1,221.9,29.2,214.4,29.2z M214.4,4.5c-6-0.1-11.1,5.1-11.1,11.1c0,6,5.1,11.1,11.1,11.1c6,0,11.1-5.1,11.1-11.1   C225.5,9.6,220.4,4.4,214.4,4.5z"/>
	<path class="st1" d="M212.9,16.7c0-2.6,0-5.2,0-7.8c0.9,0,1.8,0,2.8,0c0,1.7,0,3.3,0,5.1c1.6,0,3.1,0,4.7,0c0,0.9,0,1.8,0,2.7   C217.9,16.7,215.4,16.7,212.9,16.7z"/>
</g>
</svg>