<?xml version="1.0" ?><svg height="400px" version="1.1" viewBox="0 0 400 400" width="400px" xmlns="http://www.w3.org/2000/svg" xmlns:xlink="http://www.w3.org/1999/xlink"><title/><desc/><defs><rect height="10" id="path-1" rx="5" width="80" x="160" y="309"/><filter filterUnits="objectBoundingBox" height="200%" id="filter-2" width="200%" x="-50%" y="-50%"><feOffset dx="0" dy="4" in="SourceAlpha" result="shadowOffsetOuter1"/><feGaussianBlur in="shadowOffsetOuter1" result="shadowBlurOuter1" stdDeviation="2"/><feColorMatrix in="shadowBlurOuter1" type="matrix" values="0 0 0 0 0   0 0 0 0 0   0 0 0 0 0  0 0 0 0.5 0"/></filter><rect height="10" id="path-3" rx="5" width="60" x="169.786797" y="329"/><filter filterUnits="objectBoundingBox" height="200%" id="filter-4" width="200%" x="-50%" y="-50%"><feOffset dx="0" dy="4" in="SourceAlpha" result="shadowOffsetOuter1"/><feGaussianBlur in="shadowOffsetOuter1" result="shadowBlurOuter1" stdDeviation="2"/><feColorMatrix in="shadowBlurOuter1" type="matrix" values="0 0 0 0 0   0 0 0 0 0   0 0 0 0 0  0 0 0 0.5 0"/></filter><rect height="10" id="path-5" rx="5" width="40" x="179.786797" y="349"/><filter filterUnits="objectBoundingBox" height="200%" id="filter-6" width="200%" x="-50%" y="-50%"><feOffset dx="0" dy="4" in="SourceAlpha" result="shadowOffsetOuter1"/><feGaussianBlur in="shadowOffsetOuter1" result="shadowBlurOuter1" stdDeviation="2"/><feColorMatrix in="shadowBlurOuter1" type="matrix" values="0 0 0 0 0   0 0 0 0 0   0 0 0 0 0  0 0 0 0.5 0"/></filter><path d="M150.262985,259 C131.764453,233.167765 99.7867966,197.494572 99.7867966,169.47619 C99.7867966,113.984723 144.771519,69 200.262987,69 C255.754455,69 300.739178,113.984723 300.739178,169.47619 C300.739178,197.494572 268.761525,233.167765 250.262993,259 C250.262987,259.000609 250.262987,259.00121 250.262987,259.00181 L250.262987,294.99819 C250.262987,297.208329 248.463457,299 246.265664,299 L154.260311,299 C152.05265,299 150.262987,297.206909 150.262987,294.99819 L150.262987,259.00181 C150.262987,259.001208 150.262987,259.000605 150.262987,259.000003 L150.262985,259 Z" id="path-7"/><filter filterUnits="objectBoundingBox" height="200%" id="filter-8" width="200%" x="-50%" y="-50%"><feOffset dx="0" dy="4" in="SourceAlpha" result="shadowOffsetOuter1"/><feGaussianBlur in="shadowOffsetOuter1" result="shadowBlurOuter1" stdDeviation="2"/><feColorMatrix in="shadowBlurOuter1" type="matrix" values="0 0 0 0 0   0 0 0 0 0   0 0 0 0 0  0 0 0 0.5 0"/></filter><path d="M179.958715,184.051114 L170.870436,124.977303 C170.366906,121.704359 172.188169,120.537416 174.953497,122.380968 L179.963931,125.721258 C182.722474,127.560286 187.188165,127.56481 189.953489,125.721258 L194.963916,122.380968 C197.722454,120.54194 202.188149,120.537416 204.953481,122.380968 L209.963924,125.721258 C212.72247,127.560286 217.188169,127.56481 219.953497,125.721258 L224.963931,122.380968 C227.722474,120.54194 229.551194,121.699998 229.046993,124.977303 L219.958715,184.051117 L219.958715,243.052582 C219.958715,246.365481 217.272091,249.051117 213.959494,249.051117 L185.957935,249.051114 C182.644657,249.051114 179.958715,246.361413 179.958715,243.052579 L179.958715,184.051114 Z" id="path-9"/><filter filterUnits="objectBoundingBox" height="200%" id="filter-10" width="200%" x="-50%" y="-50%"><feMorphology in="SourceAlpha" operator="dilate" radius="4" result="shadowSpreadOuter1"/><feOffset dx="0" dy="2" in="shadowSpreadOuter1" result="shadowOffsetOuter1"/><feMorphology in="SourceAlpha" operator="erode" radius="4" result="shadowInner"/><feOffset dx="0" dy="2" in="shadowInner" result="shadowInner"/><feComposite in="shadowOffsetOuter1" in2="shadowInner" operator="out" result="shadowOffsetOuter1"/><feGaussianBlur in="shadowOffsetOuter1" result="shadowBlurOuter1" stdDeviation="1"/><feColorMatrix in="shadowBlurOuter1" type="matrix" values="0 0 0 0 0   0 0 0 0 0   0 0 0 0 0  0 0 0 0.5 0"/></filter><circle cx="219.786797" cy="243" id="path-11" r="4"/><filter filterUnits="objectBoundingBox" height="200%" id="filter-12" width="200%" x="-50%" y="-50%"><feOffset dx="0" dy="2" in="SourceAlpha" result="shadowOffsetOuter1"/><feGaussianBlur in="shadowOffsetOuter1" result="shadowBlurOuter1" stdDeviation="1"/><feColorMatrix in="shadowBlurOuter1" type="matrix" values="0 0 0 0 0   0 0 0 0 0   0 0 0 0 0  0 0 0 0.5 0"/></filter><circle cx="179.786797" cy="243" id="path-13" r="4"/><filter filterUnits="objectBoundingBox" height="200%" id="filter-14" width="200%" x="-50%" y="-50%"><feOffset dx="0" dy="2" in="SourceAlpha" result="shadowOffsetOuter1"/><feGaussianBlur in="shadowOffsetOuter1" result="shadowBlurOuter1" stdDeviation="1"/><feColorMatrix in="shadowBlurOuter1" type="matrix" values="0 0 0 0 0   0 0 0 0 0   0 0 0 0 0  0 0 0 0.5 0"/></filter><rect height="40" id="path-15" rx="6" width="20" x="190" y="10"/><filter filterUnits="objectBoundingBox" height="200%" id="filter-16" width="200%" x="-50%" y="-50%"><feOffset dx="0" dy="2" in="SourceAlpha" result="shadowOffsetOuter1"/><feGaussianBlur in="shadowOffsetOuter1" result="shadowBlurOuter1" stdDeviation="2"/><feColorMatrix in="shadowBlurOuter1" type="matrix" values="0 0 0 0 0   0 0 0 0 0   0 0 0 0 0  0 0 0 0.5 0"/></filter><path d="M257.00039,30.1954773 C258.657029,27.3260944 262.317948,26.3382682 265.196724,28.0003297 L272.123785,31.9996703 C274.993856,33.6567066 275.977196,37.3266846 274.320898,40.1954773 L260.320118,64.4455388 C258.663479,67.3149217 255.00256,68.302748 252.123785,66.6406864 L245.196724,62.6413459 C242.326652,60.9843095 241.343312,57.3143316 242.99961,54.4455388 L257.00039,30.1954773 L257.00039,30.1954773 Z" id="path-17"/><filter filterUnits="objectBoundingBox" height="200%" id="filter-18" width="200%" x="-50%" y="-50%"><feOffset dx="0" dy="2" in="SourceAlpha" result="shadowOffsetOuter1"/><feGaussianBlur in="shadowOffsetOuter1" result="shadowBlurOuter1" stdDeviation="2"/><feColorMatrix in="shadowBlurOuter1" type="matrix" values="0 0 0 0 0   0 0 0 0 0   0 0 0 0 0  0 0 0 0.5 0"/></filter><path d="M312.042182,72.2420895 C314.385023,69.8992482 318.176868,69.892597 320.527378,72.243107 L326.1833,77.8990286 C328.526703,80.2424319 328.526677,84.0418656 326.184317,86.3842251 L306.384225,106.184317 C304.041384,108.527159 300.249539,108.53381 297.899029,106.1833 L292.243107,100.527378 C289.899704,98.183975 289.89973,94.3845412 292.242089,92.0421818 L312.042182,72.2420895 L312.042182,72.2420895 Z" id="path-19"/><filter filterUnits="objectBoundingBox" height="200%" id="filter-20" width="200%" x="-50%" y="-50%"><feOffset dx="0" dy="2" in="SourceAlpha" result="shadowOffsetOuter1"/><feGaussianBlur in="shadowOffsetOuter1" result="shadowBlurOuter1" stdDeviation="2"/><feColorMatrix in="shadowBlurOuter1" type="matrix" values="0 0 0 0 0   0 0 0 0 0   0 0 0 0 0  0 0 0 0.5 0"/></filter><path d="M122.99961,40.1954773 C121.342971,37.3260944 122.317948,33.6617318 125.196724,31.9996703 L132.123785,28.0003297 C134.993856,26.3432934 138.66382,27.3266846 140.320118,30.1954773 L154.320898,54.4455388 C155.977537,57.3149217 155.00256,60.9792843 152.123785,62.6413459 L145.196724,66.6406864 C142.326652,68.2977228 138.656688,67.3143316 137.00039,64.4455388 L122.99961,40.1954773 L122.99961,40.1954773 Z" id="path-21"/><filter filterUnits="objectBoundingBox" height="200%" id="filter-22" width="200%" x="-50%" y="-50%"><feOffset dx="0" dy="2" in="SourceAlpha" result="shadowOffsetOuter1"/><feGaussianBlur in="shadowOffsetOuter1" result="shadowBlurOuter1" stdDeviation="2"/><feColorMatrix in="shadowBlurOuter1" type="matrix" values="0 0 0 0 0   0 0 0 0 0   0 0 0 0 0  0 0 0 0.5 0"/></filter><path d="M73.2420895,86.3842251 C70.8992482,84.0413838 70.892597,80.2495386 73.243107,77.8990286 L78.8990286,72.243107 C81.2424319,69.8997037 85.0418656,69.89973 87.3842251,72.2420895 L107.184317,92.0421818 C109.527159,94.3850231 109.53381,98.1768682 107.1833,100.527378 L101.527378,106.1833 C99.183975,108.526703 95.3845412,108.526677 93.0421818,106.184317 L73.2420895,86.3842251 L73.2420895,86.3842251 Z" id="path-23"/><filter filterUnits="objectBoundingBox" height="200%" id="filter-24" width="200%" x="-50%" y="-50%"><feOffset dx="0" dy="2" in="SourceAlpha" result="shadowOffsetOuter1"/><feGaussianBlur in="shadowOffsetOuter1" result="shadowBlurOuter1" stdDeviation="2"/><feColorMatrix in="shadowBlurOuter1" type="matrix" values="0 0 0 0 0   0 0 0 0 0   0 0 0 0 0  0 0 0 0.5 0"/></filter></defs><g fill="none" fill-rule="evenodd" id="Page-1" stroke="none" stroke-width="1"><g id="lamp"><path d="M200,400 C310.45695,400 400,310.45695 400,200 C400,89.54305 310.45695,0 200,0 C89.54305,0 0,89.54305 0,200 C0,310.45695 89.54305,400 200,400 Z" fill="#AAD8B0" id="Oval-6"/><g id="Rectangle-37"><use fill="black" fill-opacity="1" filter="url(#filter-2)" xlink:href="#path-1"/><use fill="#FBF0B8" fill-rule="evenodd" xlink:href="#path-1"/></g><g id="Rectangle-37-Copy"><use fill="black" fill-opacity="1" filter="url(#filter-4)" xlink:href="#path-3"/><use fill="#FBF0B8" fill-rule="evenodd" xlink:href="#path-3"/></g><g id="Rectangle-37-Copy-2"><use fill="black" fill-opacity="1" filter="url(#filter-6)" xlink:href="#path-5"/><use fill="#FBF0B8" fill-rule="evenodd" xlink:href="#path-5"/></g><g id="Combined-Shape"><use fill="black" fill-opacity="1" filter="url(#filter-8)" xlink:href="#path-7"/><use fill="#FBF0B8" fill-rule="evenodd" xlink:href="#path-7"/></g><g id="Rectangle-39"><use fill="black" fill-opacity="1" filter="url(#filter-10)" xlink:href="#path-9"/><use stroke="#D98383" stroke-width="8" xlink:href="#path-9"/></g><rect fill="#FBF0B8" height="26" id="Rectangle-40" width="60" x="169.786797" y="243"/><g id="Oval-55"><use fill="black" fill-opacity="1" filter="url(#filter-12)" xlink:href="#path-11"/><use fill="#D98383" fill-rule="evenodd" xlink:href="#path-11"/></g><g id="Oval-55-Copy"><use fill="black" fill-opacity="1" filter="url(#filter-14)" xlink:href="#path-13"/><use fill="#D98383" fill-rule="evenodd" xlink:href="#path-13"/></g><g id="Rectangle-41"><use fill="black" fill-opacity="1" filter="url(#filter-16)" xlink:href="#path-15"/><use fill="#D98383" fill-rule="evenodd" xlink:href="#path-15"/></g><g id="Rectangle-41"><use fill="black" fill-opacity="1" filter="url(#filter-18)" xlink:href="#path-17"/><use fill="#D98383" fill-rule="evenodd" xlink:href="#path-17"/></g><g id="Rectangle-41"><use fill="black" fill-opacity="1" filter="url(#filter-20)" xlink:href="#path-19"/><use fill="#D98383" fill-rule="evenodd" xlink:href="#path-19"/></g><g id="Rectangle-41"><use fill="black" fill-opacity="1" filter="url(#filter-22)" xlink:href="#path-21"/><use fill="#D98383" fill-rule="evenodd" xlink:href="#path-21"/></g><g id="Rectangle-41"><use fill="black" fill-opacity="1" filter="url(#filter-24)" xlink:href="#path-23"/><use fill="#D98383" fill-rule="evenodd" xlink:href="#path-23"/></g></g></g></svg>