<?xml version="1.0" ?><svg height="400px" version="1.1" viewBox="0 0 400 400" width="400px" xmlns="http://www.w3.org/2000/svg" xmlns:xlink="http://www.w3.org/1999/xlink"><title/><desc/><defs><filter filterUnits="objectBoundingBox" height="200%" id="filter-1" width="200%" x="-50%" y="-50%"><feOffset dx="0" dy="4" in="SourceAlpha" result="shadowOffsetOuter1"/><feGaussianBlur in="shadowOffsetOuter1" result="shadowBlurOuter1" stdDeviation="2"/><feColorMatrix in="shadowBlurOuter1" result="shadowMatrixOuter1" type="matrix" values="0 0 0 0 0   0 0 0 0 0   0 0 0 0 0  0 0 0 0.5 0"/><feMerge><feMergeNode in="shadowMatrixOuter1"/><feMergeNode in="SourceGraphic"/></feMerge></filter><filter filterUnits="objectBoundingBox" height="200%" id="filter-2" width="200%" x="-50%" y="-50%"><feOffset dx="0" dy="4" in="SourceAlpha" result="shadowOffsetOuter1"/><feGaussianBlur in="shadowOffsetOuter1" result="shadowBlurOuter1" stdDeviation="2"/><feColorMatrix in="shadowBlurOuter1" result="shadowMatrixOuter1" type="matrix" values="0 0 0 0 0   0 0 0 0 0   0 0 0 0 0  0 0 0 0.5 0"/><feMerge><feMergeNode in="shadowMatrixOuter1"/><feMergeNode in="SourceGraphic"/></feMerge></filter><filter filterUnits="objectBoundingBox" height="200%" id="filter-3" width="200%" x="-50%" y="-50%"><feOffset dx="0" dy="4" in="SourceAlpha" result="shadowOffsetOuter1"/><feGaussianBlur in="shadowOffsetOuter1" result="shadowBlurOuter1" stdDeviation="2"/><feColorMatrix in="shadowBlurOuter1" result="shadowMatrixOuter1" type="matrix" values="0 0 0 0 0   0 0 0 0 0   0 0 0 0 0  0 0 0 0.5 0"/><feMerge><feMergeNode in="shadowMatrixOuter1"/><feMergeNode in="SourceGraphic"/></feMerge></filter></defs><g fill="none" fill-rule="evenodd" id="Page-1" stroke="none" stroke-width="1"><g id="pills"><path d="M200,400 C310.45695,400 400,310.45695 400,200 C400,89.54305 310.45695,0 200,0 C89.54305,0 0,89.54305 0,200 C0,310.45695 89.54305,400 200,400 Z" fill="#AAD8B0" id="Бэкграунд"/><g filter="url(#filter-1)" id="Group-5" transform="translate(80.000000, 180.000000)"><rect fill="#DCF0E6" height="72" id="Rectangle-14" rx="10" width="60" x="0" y="0"/><path d="M0.0502586555,69 C0.0170214893,69.3317831 0,69.6683411 0,70.0088711 L0,109.991129 C0,115.514786 4.48112423,120 10.0088711,120 L49.9911289,120 C55.514786,120 60,115.518876 60,109.991129 L60,70.0088711 C60,69.6683654 59.9829713,69.3318059 59.9497184,69 L60,69 L60,60 L0,60 L0,69 L0.0502586555,69 Z" fill="#697F9B" id="Combined-Shape"/></g><g filter="url(#filter-2)" id="Group-5-Copy" transform="translate(170.000000, 120.000000)"><rect fill="#DCF0E6" height="108" id="Rectangle-14" rx="10" width="60" x="0" y="0"/><path d="M60,101.74855 L60,170.002901 C60,175.524146 55.514786,180 49.9911289,180 L10.0088711,180 C4.48112423,180 0,175.521502 0,170.002901 L0,101.74855 L0,90 L60,90 L60,101.74855 Z" fill="#697F9B" id="Combined-Shape"/></g><g filter="url(#filter-3)" id="Group-5-Copy-2" transform="translate(260.000000, 80.000000)"><rect fill="#DCF0E6" height="132" id="Rectangle-14" rx="10" width="60" x="0" y="0"/><path d="M60,123.252262 L60,209.995475 C60,215.520822 55.514786,220 49.9911289,220 L10.0088711,220 C4.48112423,220 0,215.517272 0,209.995475 L0,123.252262 L0,110 L60,110 L60,123.252262 Z" fill="#697F9B" id="Combined-Shape"/></g></g></g></svg>