<?xml version="1.0" encoding="UTF-8"?><!DOCTYPE svg PUBLIC "-//W3C//DTD SVG 1.1//EN" "http://www.w3.org/Graphics/SVG/1.1/DTD/svg11.dtd"><svg xmlns="http://www.w3.org/2000/svg"><symbol id="icon-arrow-drawn" viewBox="0 0 432.5 158.2">
    <g>
        <path d="M26.5 58c-2.1 2.2-4.1 3.8-3.4 2.9-4 4.6-4.4 4.4-4.5 5.4-2.5 3-5.8 5.6-2.9 2.3L8 76.8l4.8-4.7c-.4.9-2.4 2.7-4.3 4.6-1 1-2 1.9-2.8 2.8l-.6.6c-.5-.7 1.2 1.6-1.2-1.6l1.6 1.1-.1.1c-.1.1-.1.2-.1.2-.1.3-.1.5-.1.7 0 0 0-.1.1-.3 0-.1.1-.2.2-.3 0-.1.1-.2.1-.2l.1-.1h-.1l-.2-.2-1-.7-.4-.1c-.4-.5 2.6 3.3 1.3 1.7l.1-.1 3-3c2.1-2.2 4.3-4.3 4.3-4.3l-.3.6c1.8-2.1 5.7-5.9 7.1-7.1-.1.3.1.3-1.4 1.8 10.5-10.4 2.1-3.6 10.6-12.4-.6.5-1.3 1.2-2.2 2.1z"/>
        <path d="M36.4 50.2l3.1-4.2 6.2-6c-.1-.3 4.2-4.8 1-2-.6.6-1.7 1.8-2.6 2.8.3-1.1 7.9-8.3 5.7-6.9-4.7 4.9-5.5 5.6-8.2 8.9-4.5 4.4-7.8 7.5-10 9.4-1.3 1.4-1.2 1.8-2.8 3.5l1.1-1.1.8.4c1.3-1.5 2.6-2.8 4.2-4.3l-6.4 7.8c2.9-1.7 9.6-9.1 12.6-11.7-4 3 2.5-3-4.7 3.4z"/>
        <path d="M28.8 55.7l-.2.2.2-.2z"/>
        <path d="M339.9 88.6c-2.1 0-2.8.2-3.1.3h16.7c1.5 0 2.8-.1 4-.2 2.3-.2 3.9-.4 3.9-.4-.4-.1-2.4.1-3.7 0-1.3 0-1.9-.1.5-.3-1.1 0-3.2.1-5.2.2s-3.8.2-4.3.4l1.8-.3c-5.6.4-9.4-.4-5.7-.7h-.5l-15.4 1.7c5.5 0 4.2-.7 11-.7z"/>
        <path d="M23.1 106.8c2.3 2.2 2.6 2.4 2.4 2.1-.8-.8-1.6-1.5-2.4-2.1z"/>
        <path d="M325.1 89.6l-4.8.5c1.9-.1 3.6-.3 4.8-.5z"/>
        <path d="M358.1 81.2c.1 0 .1 0 0 0-.1-.1-.6 0-1.1.1l-1 .2h.1c.8 0 1.4-.1 2-.3z"/>
        <path d="M215.4 91.6h-1.6 1.6z"/>
        <path d="M407.2 49.4s-1.3 2.1-2.7 4c-1.4 2-3 3.8-3 3.8.7-1.1-2.5 2.3-1.3.7-.5.6-2.9 3-2.2 2.5l1.4-1.4c-1.6 2-1.8 2.5-2.4 3.3-.6.8-1.4 1.9-4.8 4.7 4.6-2.9 6.1-4.9 7.9-7 .7-.7 1.2-1.3 1.7-1.9l2.4-3.4c1.1-1.7 2.1-3.5 2.1-3.5l.9-1.8z"/>
        <path d="M35.3 106.1h-.1.1z"/>
        <path d="M34.7 105.8l.5.2c-.5-.3-2.2-1.8-.5-.2z"/>
        <path d="M326.9 89.2c-.1.1-.8.3-1.8.5l3.6-.4c-.5-.1-1.2-.1-1.8-.1z"/>
        <path d="M335.1 87.6l9.1-.1 3.3-.4c-3.5.2-7.5.3-12.4.5z"/>
        <path d="M229.7 92c-18.8.1 4.6-.8-4-1-5.2.1-7 .5-10.3.6 14.9-.3-2 1.3 13 1.1-2.1.7-10.8.8-15.9.6-5.8-.7 5-.5 6.3-1.2-6 .1-5 .2-7.5.6-9.5-.2-19.6.8-25.2-.1-6.8.1-6.4.5-10.3.8-.8.7 10.2.4 12.7 1-.5-.1-1.5-.2-1.3-.3l5.9.2c-5.6-.3.8-.7 3.8-.8 2.2 0 6.5 0 5.9.2l-3.3.2c4.3.2 9.4-.5 13.9-.1.2.2-1.5.2-1.7.3 5-.5 9.9-.5 17.3-.8l-4.3.7c6-.8 19.5-.6 28.8-.1-1-.1-2.9-.2-1.8-.3 5.5-.2 9.6.3 7.1.7 5.4-.6 20.5.5 27.8-.3l33.6-3.7c-1.3.1-2.6.2-4 .2-3.1-.6-4.7-.6.7-1.2-5.3.3-3.3.8-11.2.9 3.1-.3 3.9-1-3.7-1.1-18.9.6-31.5 2.4-49.1 3.4-.7-.5-14.5-.4-21.3-.5 2.6-.5 7.6-.7 12.8-.8-3.3 0-8.9 0-13-.1l-1.7.9z"/>
        <path d="M273.7 90.4c-.5 0-1-.1-1.5-.1.3 0 .7 0 1.5.1z"/>
        <path d="M246 91.1c.1-.1.1-.1 0 0h-1.6c.6-.1 1.3-.1 1.6 0z"/>
        <path d="M322.5 88c1.1-.1 2-.2 3.1-.3-.7 0-1.6.1-2.4.1-.8.1-1.2.2-.7.2z"/>
        <path d="M326.3 88.9l-.6.2h1.3c0-.1-.1-.1-.7-.2z"/>
        <path d="M158.1 87.6l-1.8.1c1 0 1.5-.1 1.8-.1z"/>
        <path d="M208.8 91.2c6.5 0 .8-.7 10-.7h-2.7c6.6-.3 18.3-.2 26.1-.2-.9.3 4.8.4 3.9.8 5.4-.1 10.7-.2 13.5-.7 3.3.2 8.4-.3 12.6-.1-1.8-.3 6-.9-4.3-.6.8 0 .3-.1 1.1-.1-6.6-.4-9.3.3-15 .3-3.4-.3 5.6-.4 2.4-.5-7.1.3-22.4-.3-21.9.7-5.2.1-5.9-.2-7.5-.3-8.2 1.1-30.5-.5-30.4.9 3-.1 7.9 0 12.3-.3l-.1.8z"/>
        <path d="M311.5 88.1h-1.3 1.3z"/>
        <path d="M394.8 79.6l-1 1.2c-.5.6-1 1.1-1 1.1-3.6 2.2-6.9 3.7-9.8 4.9-2.9 1.2-5.6 2.1-8.3 2.9-5.3 1.5-10.5 2.6-17.8 3.1-1.1 0 .6-.2 1.5-.4-1.3.1-2.7.2-4.1.3-1.4.1-3 .1-4.3.1h-8.5c-5.6 0-10.9.1-14.4.3-3 0-11-.3-8-.6-1.5.1-3.2.2-4.9.1-.4-.3 3.8-.1 3.9-.4-1.3 0-1.9-.1-2.2 0 2.3-.3-2.4-1.1 8.2-1.1 4.1.8-7.3.1-4.9.9 3.5 0 3.1-.3 3.4-.4 4.5 0 4.4.2 4.1.4 1.7-.3 7.3.1 9.7-.3 8.7-.1-.5.6 5.2.6l3.3-.8s2.4 0 4.7.1h4.9c3.7-.2 5.3-.6 6.1-.8.7-.2.5-.4.4-.6-.2-.2-.2-.4.7-.7 1-.3 3-.7 7-1.7-2 .9 4.7.5 12-2.3-2.2.9-5.2 2.1-8.6 3.1-3.3 1-6.9 1.8-9.9 2 4.2-.3 1.4.2-2 .6-3.4.4-7.4.6-5.1.9 2.1-.3 4.9-.6 7.8-1.1 2.9-.4 6-1 8.7-1.6l-1.7.5c2.9-.6 5.3-1.5 7.9-2.6 2.6-1.1 5.5-2.3 9.1-3.9 3.5-1.8 3-1.3 2.5-.8 2.8-1.4 5.3-3.2 5.4-3zm-7.6 4.3s-1.2.6-2.4 1.1c-1.2.5-2.5 1-2.5 1 1.3-.3 3.1-1.1 4.9-2.1z"/>
        <path d="M79.1 9.9v-.4c0 .1.1.3 0 .4z"/>
        <path d="M367.3 78.5s-.7.2-1.5.3c-.8.1-1.5.3-1.5.3 1.2-.2 2.2-.4 3-.6z"/>
        <path d="M302 83.2l-4.2.2c1.6 0 2.9-.1 4.2-.2z"/>
        <path d="M57.5 32l-.1.1c-.2.2-.3.3-.4.5l.5-.6z"/>
        <path d="M172.6 81.2c-.6-.1-1.4-.1-2.3-.2.1.1.9.2 2.3.2z"/>
        <path d="M302.7 83.2h-.3c-.2 0-.3 0-.5.1l.8-.1z"/>
        <path d="M395.9 67.5c.5-.4 1-.8 1.5-1.3-.7.6-1.2 1-1.5 1.3z"/>
        <path d="M390.9 68.1c.6-.4 1.1-.8 1.5-1.2l-1.5 1.2z"/>
        <path d="M419.2 27.6s-.2.9-.4 1.7c-.2.9-.5 1.7-.5 1.7.6-1.6.8-2.6.9-3.4z"/>
        <path d="M399.8 61.7c.1-.2.3-.4.4-.5-.4.4-.6.6-.4.5z"/>
        <path d="M66.2 16.6l.2-.2v-.1l-.2.3z"/>
        <path d="M60.4 24.1c-.8.8-1.6 1.6-2.4 2.5 1-.9 1.8-1.8 2.4-2.5z"/>
        <path d="M116.4 79.8c-1-.1-3.4-.3-2.3-.4-2 .2-1.9.6 2.3.4z"/>
        <path d="M81.3 1.6c-.5-.2-1.1-.3-1.8-.3h-1c-.3 0-.7 0-.9.1H79.3c.5.1 1 .1 1.4.2.7.1 1 .2.6 0z"/>
        <path d="M77.6 1.3c-.4 0-.7.1-1 .1-.3.1-.6.1-.9.2-.6.2-1.1.4-1.6.7.5-.3 1.1-.6 1.7-.7.3-.1.6-.2.9-.2.3 0 .6-.1.9-.1z"/>
        <path d="M142.4 72.8c.3.1.6.1 1.2.1-.2-.1-.6-.1-1.2-.1z"/>
        <path d="M56 28.4c-.3.6-10.4 11.4-1.5 2.6.1.8-5.4 5.8-7.7 8.3 1.8-1.6-.6 1.1.1.8 1.1-1.2 2.4-2.7 4.3-4.6 1.1-.7-1.7 2.4-4 4.6 3-2.6-3.2 3.9.9.1 8.3-8.6 14.2-14.8 19.5-21.4-4.7 4.9-10 10.5-14.2 14.3l1.3-2.1c4.8-4.1 7.3-7.2 11.8-11.5l-10.1 9.7c-5 4.3-1.9 1.1 1.7-2.6-.9.9-1.8 1.7-2.1 1.8z"/>
        <path d="M59.3 18.4l-.2.2c-.1.2-.3.3-.4.5l.6-.7z"/>
        <path d="M430.1 29.7L430 31c.1-1.1.1-1.4.1-1.3z"/>
        <path d="M67.1 14.3c.1 0 .1-.1 0 0z"/>
        <path d="M416 2.1l.2-.2c-.2.1-.2.1-.2.2z"/>
        <path d="M423.9 13.9c0-.1.1-.1.1-.2 0-.7-.1-.4-.1.2z"/>
        <path d="M416 2.2c-.1 0-.1 0 0 0-.1 0-.1 0 0 0z"/>
        <path d="M313.9 73.1s.5.1 1.2.2c.3-.1 0-.1-1.2-.2z"/>
        <path d="M342.7 73.9c.2 0 .3 0 .5.1l-.5-.1z"/>
        <path d="M123.2 82.3h3.4-3.4z"/>
        <path d="M416.2 1.9c.5-.4 1.1-1 2.5-1.6-1.5.6-2.2 1.2-2.5 1.6z"/>
        <path d="M270.1 75.9c.3 0 .6 0 .9-.1h-.5l-.4.1z"/>
        <path d="M255.1 75.5c.5-.1.7-.1 1-.2-5.4.2-15.2 0-16.4.6 1.8 0 11.2.3 9.6.7 3.7-.1 9.3.3 11.3.2-6.1-.3-.7-.5 3.5-.7 3.8.2-.7.5 2.5.6l8.7-.1-7.6-.1 2.3-.6c-.3 0-.5 0-.8.1-12.7.2-1-.9-14.1-.5z"/>
        <path d="M256.1 75.3c.8 0 1.5-.1 2.1-.1-1.2-.1-1.7 0-2.1.1z"/>
        <path d="M203.7 74.4c-.7 0-1.4.1-2.3.1.5-.1 1.5-.1 2.3-.1z"/>
        <path d="M354 87.2c.1.1 2.1.1 4 0s3.8-.4 3.7-.6c-2.2.3-4.5.4-6.8.5l-.9.1z"/>
        <path d="M60.9 76.8h2.5c.2 0 .4 0 .5-.1-.5 0-2.1.1-3 .1z"/>
        <path d="M247.1 76.7c1.4-.1 2-.1 2.3-.2-.9 0-1.7.1-2.3.2z"/>
        <path d="M60.5 75.8c-1.1-.1-2.6-.3-2.8-.5-2.2 0-3.7.2-5.9.3 2.4 0 5.3 0 8.7.2z"/>
        <path d="M51.5 75.7h.2-.2z"/>
        <path d="M349.5 87.1c-.6 0-1.3.1-2 .1l1-.1c-1.7 0-3.4-.1-5.1-.1-.6 0-1.3 0-2.1.1.3 0 .6-.1.8-.1-.6 0-1.1 0-1.6-.1-4.1.4-14.3.8-17.2 1-3.9.2-8.6.3-11.6.3 2.8 0 6.4-.1 5.3-.3-5.6-.3-8.4-1-18-.4h5.7l-12.8 1c-4.5-.4 6.4-.5 8.2-.8-9.9.5-18.2-.8-22.8 0-.6-.5-1.7-1.3-8.3-1.3 4.7.6-3.9.4-.1 1-2.3.3-7.3-.2-7.7.2l.6-.2c-11.1-.8-14.8.4-19.6.8-13.3.2-19.5-.1-30.4 0-.4-.3-3.4-1.2-7.8-1.2-2 .4-11.9.6-12.9 1.2 7.8.2 6.4-.5 11.1-.6 3.9.6.4.6 5.7.9-4.3-.2-19.4.3-24.1-.2l1.7-.1c-7.5-.3-8.9-1.7-21.4-.9l-6 .3c.3-.1.3-.1.5-.2-9.8-.1-7.1-.7-17.9-.2.8 0 .3-.1 1.2-.1-6.1-.3-12.3.3-17 .5-2.8-.5.7-.5 2.4-.8-10.8-.2-22.4.6-29.2 1.2l-7-.3c4.1-.2 9.2-.7 7.9-1-3.8.1-3.1.3-8.5.2.9-.3 3.2-.6 5.7-1-11.1-.5-2.4 1.1-10.2.2-3.5 0-5.6.4-5.9.8l-6.4-.5c-.7.5-8.6.5-13.7.6-.6.2 4.1.5 6.1.3-.4.4-5.9.5-9.4.5-.6-.5-6.4-.5-11.5-.4-2.5 0-4.9 0-6.4-.1-1.3-.1-1.9-.2-.9-.5-5.1.1-11 .2-16.8.3 3.7 3.6 7.4 7.2 10.8 10.4 1.7 1.7 3.4 3.3 4.9 4.7 1.6 1.5 3 2.9 4.2 4 2.2 2.6 7.2 7.6 3.9 5 9 9 14.4 13 23.1 22.1.7.8-4.1-4-4-3.5 3.1 2.8 5.7 5.5 8.6 8.7 1.5 1.6 3.1 3.3 4.9 5.1l2.9 2.9c.5.5 1 1 1.6 1.5.3.2.6.6.9.9.3.4.5.8.7 1.2-.5-1.2-1.3-1.8-1.6-2-.4-.3-.6-.4-.7-.5 0-.1.2.1.6.5l.3.3.4.4c.3.3.6.7.8 1.2.5.9.7 2.1.6 3.3-.1 1.2-.6 2.3-1.2 3.1l-.4.4c.1-.1.4-.4.6-.8.5-.7.7-1.7.5-1.1-.7 1.7-2.2 2.9-3.9 3.3-1.7.4-3.5 0-4.9-1-.7-.6-1.1-1.1-1.7-1.6l-1.5-1.5-3-3c-4-4-8-7.7-11.9-11.5-7.9-7.5-15.8-15-24.5-23.7 5 5 7.3 6.4 7.6 6.3l-4.9-4.9c-2.1-1.7-5.8-5.3-9-8.2-.3-.5-1.7-2-.1-.6-4.6-5.1-8.6-8.6-12.8-12.4-2.4-2.1-4.6-4.1-7-6.3-1.2-1.1-2.4-2.3-3.8-3.6l-.5-.5-.2-.3v-.1l-.1-.1-.1-.2-.2-.3-.2-.4-.2-.3-.1-.3-.1-.2v-.1L.3 83c-.4-1.3-.3-2.8.1-4v.2c0 .1 0 .2-.1.3 0 .1 0 .2-.1.3v.2c0 .3-.1.9 0 1.3v.4c0 .1 0 .3.1.4 0 .2.2.7.3.9 0 .1.1.2.1.3.1.4.2.4.3.6.1.2.3.5.5.7l.3.4.2.2v.3l.2.1c.2.2.4.4.7.6.9.8 1.8 1.6 2.8 2.5 3.8 3.3 7.6 6.7 7.6 6.7L10 91.5l6.7 5.9c-3.5-4-7.4-6.7-7.5-7.5.9.7 2.8 2.6 3 2.5-3.5-3.7-4-3.8-6.8-6.4 7.8 6.4 21.8 20.5 29.6 27.8 1.2 1.1-1.2-.8-1.5-1 3.1 3.1 4.7 5.1 8.7 8.9 2.7 2.1-1.6-2.1-3.5-4 .5 0 1.5 1 3.6 3.1.1.8 11.5 11.8 13.9 14.9 11.5 11.2-.9-2.7 10 8.5l2.9 3.7c1.7 1.5 3.5 3.2 5.4 4.9.5.4.9.9 1.4 1.3l.1.1c.1 0 .1.1.2.1l.2.1c.1.1.3.2.5.2.6.3 1.4.2 2 0 .6-.3 1.1-.8 1.3-1.4.2-.6.2-1.3-.1-1.9-.1-.1-.1-.3-.2-.4 0-.1-.1-.1-.1-.2l-.2-.2-1.4-1.4-2.8-2.8 1.5 1.5c1.2.9-.4-.9-1.1-1.8-5.3-5.7-10.8-10.1-13.7-13.9-6.7-5.9-17.5-16-24.9-23-1.4-2.5 9.8 8.9 13.1 11.6l-6.5-6.5c4 4 5.8 5.4 8.6 7.6-5.6-5.8-8-7.2-13.5-12.5.6.3-.1-.5-2.6-3l-1.1-.4c0-.1-.3-.4-1-1.2l-12-11.5c2.4 2.7 2 2.9 5.5 6.4-.5-.7 0-.3 1.1.7.5.5 1.2 1.1 1.9 1.8l1.8 1.8c-2.4-2 2.2 2.6 2 2.8-3-3-6.4-6.3-9.5-9.4-3.7-3.7-7.2-7-9.7-9.4 0 0-.2-.3-.3-.6-.1-.3-.3-.6-.3-.6l-3.6-3.6c3.8 0 7.6 0 11-.1h9.3l-1.8.2H43.9c3.9 0 7.7 0 11.3.3 7.2-.5 16.3-.9 22.2-1.5 3.2-.6 21.2.7 29.3-.1.5.1-5.6.4-8.4.7 5.4.1 9.7-.6 11.4 0-12.1-.2.7.5-4.8.7 5.7 0 11.7-.1 14.5-.3-9.2 0 3.3-.8-6-.6 7.2-.5 17.1-.7 25.7-.5-.1.3 1 .4 4.2.5l2.6-.4c4 .1-7.8.5.3.6 8.3-.7 25.1.4 28.8-.8 6.4.5-12.1.5-2.5 1.1-5.6.4-13.3-.1-15.1.5 5.5-.2 2 .5 5.5.5l6.1-.4h-1.3c10.2-.6 26.4-.3 39.5-.4 11.1-.6 18.7-1.5 31.9-1.4-3.9.4 11 .3 2.7 1 6.1.3 12.2-.1 12.3-.3-5.4-.1-1.9-.1-6.4-.2 3.1-.3 10.1-.3 13.1-.1-1.3 0-.8 0-1.1.1 6.4.2 3.1-.3 7.8-.5 1.5.4 10.3.1 14.5.4l6.2-.6c-3.4.4 5.9.2 6.9.5 4.4-.3 8.1-.8 14.9-.7-2.8.2 6.1.3 6.3.7 11.5.4 19.1-1.2 30-.6-.3.1-2.5.4.6.5 1.2-.1 3-.1 4.7-.1 1.7 0 3.3-.1 4.6-.2h-.1.1c1.2-.1 2-.2 2-.3 2.1-.4 3.7-.9 5.8-1.4 2.1-.6 4.6-1.3 8.6-2.7-.4-.1-2.2.4-4.4.9-2.1.6-4.6 1.1-6.1 1.4 0 0-.6.2-1.3.4-.6.2-1.3.4-1.3.4-1.3-.2-3.2 0-5 .2-1.8.2-3.5.3-4.6.2 1.4-.2 3.2-.4 5.4-.6 2.2-.2 4.7-.6 7.3-1.1 5.2-1 10.7-2.7 14.6-4.6-2.5.7-6.5 1.9-11.1 2.8-4.6.9-9.8 1.5-14.7 1.6 0 0 1.1.1 2.2.1h2.2s-1.3.1-2.6.1h-2.7l2.6.2c1.3.1 2.5.1 2.5.1-1.2.1-2.4.1-3.6.1h-11c5.7 0 7.9.7 4.7.6-6.4-.5-6.6.3-11.5.3 2.7 0 6.2.1 4 .3-9.6-.6-12.2-.2-20.9-.8 1.1.8-10.9.1-12.2.7l4 .1-8.6.5c-7.9-.7 7-.7-5-1.1-11.1-.1-10.8.8-19.6.8 2.9-.5 9.8-.9 16.9-.9l-4.3-.2c2.3-.3 12-.2 16.9-.2-8 .6 3.8.2 7.4.6.7-.5-4.5-.4 1.6-.8-5.7 0-6.5 0-13.8-.1 15.7.2 14.1-1.6 27.8-1.2-6.3.2 2.2.7 3 .9 3-.1 9-.2 11.5-.3l-2.2-.7c4-.1 6.7.1 9.5.4.4 0 .7.1 1.1.1.3 0 .7 0 1 .1h2.1c1.5 0 3.2-.2 5.3-.6.5-.3-1.3-.1-3.1.1-1.8.1-3.5.2-2.7.2 5.6-.5 9.4-1 13.1-1.6 3.6-.6 7.2-1.2 12-3 .4-.4.2-.7 3.2-2.6-.8.8 1.6-.1-1.8 1.9 3.2-1.3 6.6-3.5 8.9-5.3-3 1.8-2.5 1.3-1.1.2s3.6-2.8 4-3.3c2.9-2.2-.6 1-2.4 2.4 2.5-1.5 5.6-3.3 6.4-4.8.2.1-1.2 1.7-3.2 3.6-2.1 1.9-4.9 4-7.3 5.4 0 0 .8-.4 1.6-.9l1.6-1c-2.1 1.5-2.5 1.8-5.8 3.4 3.4-1.4 3.2-1 2.6-.3-.5.2.2-.2-.2 0-2.7 1.4-4.8 2.4-4 2.3-1.1.8-.1.5 1.4-.2s3.5-1.8 4.5-2.2c1.3-.8 2.6-1.7 3.9-2.6 0 0 3-2.6 5.7-5.5s5-6 5-6c2.2-2.5 3.7-4.3 5.1-6 1.4-1.7 2.7-3.2 4.1-5.3l.3-1.4c3-4.9 5.1-10 4.2-6.3-.2.1-.5.8-1.1 2 0 .2-.1.5-.2.8 0 .1 0 .2-.1.3 2.7-5.6 3.7-9.4 3.8-9.7-.7 2.6-1.1 3.9-1.2 4.4-.1.6.1.4.4 0 .6-.8 1.6-2.7 1.7-1.7 0 0 .9-2.6 1.6-5.2.7-2.6 1.2-5.3 1.2-5.3-1.8 6.3-.4 0-.1-2.3.3-.3.7-2.4.9-5 .2-2.6.2-5.5.3-7.4l.1.3V10v-.1c0 .1 0 0 0 0 0-.1 0-.1-.1-.2s-.2-.3-.4-.3c-.4-.1-.7.3-.7.5 0 0 .1.1.2.1v.2c0 .2.1.4.1.6.1.4.1.9.2 1.4.2 2 .4 4.4.4 6 .5-4.3.6-5.2.7-5.1.1.1.2 1.2.3.9-.1.9-.2 2.5-.2 2.7 0 1.3.3-1.7.5-1.9 0-1.2.1-2.3.1-3.5v-1.1l-1.8-.1h-.2s.1.1 0 0v0s.1 0 0 0V10v.2c-2-.3-.6-.1-1-.1V10.4c0 .1 0 .2.1.3 0-.1 0-.3.1-.4v-.2c-.2 0 1.6.2.8.1V10v.1c-.1.1 0 0 0 0s-.1.1 0 0h0V10v.2c.1 0-1.2-.2-.6-.1V10v.5c0 2.6-.2 5.4-.6 8.7l-.4 1-.4 1s-.2 1.6-.5 3.2l-.6 3.2c.2-1.3.1-1.6.2-2.4 0-.8.2-2.1.7-5.4-.3.4-.5 2.1-.8 4.1-.4 2.1-.9 4.5-1.6 6.5 0 0 0 .5-.1 1.1 0 .6-.1 1.1-.1 1.1 0-.4-.7 1.5-1.3 2.7-.6 1.2-.9 1.8 0-1.3 0 0 .8-2.4 1.4-4.9.6-2.5 1-5 1-5s-.2.7-.5 1.3c-.3.7-.5 1.3-.5 1.3s.5-2.1.9-4.2.6-4.2.6-4.2v2c.4-3.4.5-5.4.7-6.6.1-1.2.3-1.7.4-2.3.1-.3.1-.5.2-.9v-.3V9.9c-.4 0 3.6.2 1.9.1v-.2.1c0 .1 0 0 .1 0v.1h.1-.2-.1.1c0-.1 0 0 0 0h-.1.1c.9.1 1.8.1 2.7.2v.6c0 3.5-.2 7.6-1.2 12.7.6-3.8.4-4 .2-3.6-.2.4-.5 1.3-.5-.1-.7 3.8-1.2 6.3-1.6 8.4-.4 2.1-.7 3.7-1.2 5.7-.5.9-.9 1.6-.9 1.3 0-.3.4-1.6 1.4-4.9-.2-.5-.8 1.7-1.6 4s-1.8 4.7-2.3 4.9c-2.3 5.2-4.2 8.6-5.8 11.4-1.6 2.8-2.9 4.8-4.3 6.9-1.5 2.1-3.1 4.2-5.7 6.8-2.7 2.6-6.3 5.7-12.2 9l.7-.8c-7.1 4.6-13.5 7.1-19.8 8.8-3.2.8-6.4 1.5-9.7 1.9-1.7.2-3.4.4-5.2.5-.9.1-1.8.1-2.8.1-.9 0-1.8 0-2.7.1l-11-.9c2.5-.1 9.2-.7 6.1-1.1 1.4.2 2.7.3 4.1.4.7 0 1.4.1 2.1.1h2.3c3.1 0 6.3-.3 9.5-.6.6-.3-2 0-3.1 0 1.9-.2 3.4-.4 5-.6 1.6-.2 3.3-.5 5.8-1.3-.3 0-5.7 1-1.7 0 0 0 1.7-.3 3.4-.7 1.7-.4 3.4-.9 3.4-.9 4.3-1.7 5.2-2.6 6.3-3.3.6-.4 1.2-.8 2.2-1.4 1.1-.6 2.6-1.4 4.9-2.8-1.5 1.4-4.8 4.1-8.6 5.8 2.3-1 .8-.2-.7.5-1.6.7-3.2 1.5-1 .8 3.2-1.7 5.6-2.9 8.2-4.3 2.6-1.5 5.4-3.2 9.1-6.3-.8.8-1 1.1-2.9 2.5 0 0 2.9-1.9 5.6-4.2 2.7-2.2 5.2-4.7 5.2-4.7-1.4 1.1.6-1 2.6-3.5s3.8-5.3 3.2-5c-2.2 2.9-3.9 4.8-5.2 6.2-1.3 1.4-2.3 2.4-3.3 3.4s-2.1 2-3.8 3.4c-1.7 1.4-4 3.1-7.6 5.3 2-1.3 4.1-3 5.9-4.7 1.8-1.7 3.3-3.4 4.1-4.5.1-.1.3-.2.7-.6 1.4-2.1-.5-.5-1.1-1.2-2.4 2.8-4.8 4.8-7.4 6.7-2.6 1.9-5.5 3.7-9.4 5.9-.6.6.6.2 2.4-.7 1.8-.9 4.2-2.4 6-3.7 0 0-1.5 1.2-3.2 2.3-1.6 1.1-3.3 2.1-3.3 2.1l1.2-.9s-4.3 2.4-8.9 4.1c-2.3.9-4.7 1.6-6.4 2.1-1.8.5-3 .7-3 .7 3.6-.9 4.7-1.6 6.5-2.5-2.4.8-4.8 1.4-7.4 1.8.7.4.4.8-2 1.3-3.1.6-5.9.8-8.4.9-2.5.1-4.8 0-6.6-.1-3.7-.2-6.4-.5-8.6-.7h-1.4c2 .5-8.5.9-12.1 1.4.2-.5-6.1-.3-9.6-.6-1.8.6.6 1.4 4.8 1.9 8.1-.6 4.5-.6 8.3-1.3l12.9-.5-2.9.5c3.2.1 6.4 0 8.7-.1h2.8c.7 0 1 .1.9.3-1.9.3-4.1.3-6.3.3-2.3 0-4.5.1-6.2.3l4.3.2c-7.5.6-3.9-.6-13-.2 3.4.5-.8 0-4.7.4 3.1.4 16-.2 13.3.8-4.7.4-15.9-1.1-22.2-.2l.3-.1c-9.2-.1-12.5.4-16 .7-3.9-.3-9.4.1-13.6.2h-.1l-6 .1c2.9-.5 7.1 0 12.2-.1l-.6-.5c6 .6 9.9-.3 14.6-.7-6.7.4-19-.1-20.6.8l-4.2-.5-2 .2c-3.1-.4.1-1 6.1-1.1 1 .1 1.6.2 1.3.3 2.8-.2 5.4-.6 12.1-.5l-3.6.3c8.4 0 16-.2 18.9-.6-12.1-.2-24.1-.2-35.5-.2-3.4 1.1-7.3 1.7-9.1 2.8-7.6.2-18 .3-24.7 0l.6-.2c-3.2-.1-6.2-.1-8.7.1-3.4-.3 2.3-.5 0-.7l-11 .3c.7-.5 9.9-.5 14.3-.5-.8 0-2.5.1-2 .2 5.1.2 14.6-.6 16.8.1 2.5-.1-5 .5 3.4.5 5.6.3 7.5-.4 8-.6.1-.3-8.8-.4-5.7-.7-4.4 0-6.1.4-11.7.1 4.3 0 10.2-.6 12.5-.2 8.6-.5 7.3-1.7 3.3-1.8 1 .4-15.6.5-4.4 1-5.1.5-14.3.5-20.9.8l.3-.1-8.2.1c1.2-.1 3.6-.3 3.7-.5l-11.3.8c6.4-.5-4-.3-6.9-.5-1.2.4-5.7.7-1.4.9 4.8.3 2.8-.2 7.1-.3l-6.2.6-.5-.1-3.7.5c-8.4 0 3.7-1.2-7.1-.7l1.4.7c-12.5-.1-28.5-.9-37.3-.6 2.4-.4 3.5-1.1.2-1.4 3.8.1 11.4.1 16.9 0 1 .1-6.8.8-12.7.7 2.9 1.2 14.9-.7 15.6.5 15.1.4 11.2-1.1 24-.4.2-.5 3.6-.3 4.3-.7-3.8-.9-17.1 0-25.4-.3.8 0 2.4-.1 2.8-.2-5.9-.2-8.4 0-12.5.2l.5.1c-7.2.5-4.5-.4-8.7-.6-1.7.1-7.6-.1-6.6.3l-7.7-.5.4.6c-4.4 0-5.3-.4-9.3 0l-.2.5 10.8.2c-5.5.2-1.5.5-7.5.6 6.7-.6-4.8-.3-5.4-.8l-4.4.3 1.1-.1c-3.5-.3-4.1.2-8.2.1 4.8.3 7.9.7 14 .3-4.4.3-13.2.6-15.4.6-4.7.2-7.9-.2-12.3-.2 8.4-.2-2.9-1.6 13.8-1.2-.3.1-1.7.1-2.2 0 2.2.7 10 0 13.7-.3-.9-.4 2.9-.5-3.6-.7 2.1.2-5.4.9-11.6.5l1.1-.8-8.9-.1h.8c-3.4-.5-9.5.1-15.7-.2-4.4.3-21.5.1-14.1.9-5.5-.5-10.4.1-16.4.3l7.5.3c-8.9.6-6.3.2-13.4 1.2-.7-.2-2.3-.4-.9-.7-11.9 0-28.9-.3-35.9.4-1.2 0-2.3 0-3.3-.1-1.4 0-2.7-.1-4-.1-2.4-.1-4.5-.2-6.8-.3-2.2-.1-4.6-.2-7.6-.2s-6.7 0-11.6.1h-.9c1.1-1.4-3.7 2.7 5.2-5.9.4-.3-1.6 1.8-2.2 2.7-.7.9-.2.6 4.7-4.3 3-3.4 7.4-7.8 12-12.1 1.8-1.7 3.6-3.5 5.4-5.3 1.4-1.4 2.8-2.9 4.2-4.4 3.2-2.8 8.3-8.1 7.6-6.7-5 4.6-11.6 11.4-12.5 12.6.2-.4-.7.4-1.2.8-.2.2-.5.5-.4.2.1-.2.5-.6 1.3-1.5-.5.4-.9.8-1.3 1.2l-1.6 1.6c-1 1-1.9 1.8-2.6 2.5-1.4 1.4-2.3 2.3-3.1 3.2-1.6 1.7-3 3.2-8.3 8.4-.2.3 1.4-1.1 3.2-2.7 1.8-1.7 3.8-3.6 4.8-4.7.5 0-4.2 4.8-7.6 8.4-1.7 1.8-3.1 3.3-3.5 3.8-.4.5.4-.1 2.9-2.3 4.9-4.8 7.4-7.8 10.2-11 1.4-1.6 2.8-3.2 4.5-4.9l1.3-1.3c.3-.3.7-.6 1-1 .7-.6 1.4-1.3 2.2-1.9-.5.7-1.2 1.4-1.9 2.2-.4.4-.8.9-1.2 1.3-.6.6-1.1 1.2-1.7 1.8-2.3 2.4-4.7 4.9-6.2 7l7-6.7s.3-.3.7-.8c.2-.2.5-.5.7-.8.1-.1.3-.3.4-.5l.3-.4 1.6-2-.1.3c9.1-8.2 7.5-8.5 15-16.5-4.8 4.2.2-1.9-3.4 1.3 5.1-5.3 9-9 9.5-8.6-9.3 10.1 0 1.1-8.5 10.5 1.6-1.3-1.4 2.9 4-2.4 5.7-6.4-2.2 1.4 3.6-4.8.4-.3.8-.6.7-.4 2.5-3 3.3-3.1 6.4-6.8l-.7.9c4.4-3.8 4.2-4.9 8.1-8.1-1.8 1.1 2.1-2.7 4.1-5.1-3.7 3.5-6.2 4.9-13.3 12-.6 1.1.1.8-2.7 3.8l4.6-4.7c-.9 1-1.6 1.9-2.5 2.8l-4.6 4.3c5.4-5.8 2.5-3.6 4.6-6.2 5.3-5 4.2-4.3 7.5-7.5 0 .4 2.7-1.9 6.1-5 1.7-1.6 3.6-3.3 5.5-5 .5-.4.9-.9 1.4-1.3.2-.2.5-.4.7-.6l.1-.1-.1.1.1-.1c.2-.2.3-.4.3-.6 0 .1 0 .3-.1.5 0 .1-.1.1-.1.2l-.1.1-.2.2.1-.1-.1.1-.3.3c-.2.2-.3.4-.4.5-.2.2-.2.3-.2.3.1 0 .2-.1.5-.3.2-.2.5-.4.8-.7.2-.2.4-.5.5-.8.1-.3.1-.5.1-.6 0 0-.1-.4-.4-.6l-.2-.2.1.1.1-.2c-.1-.1-.2-.1-.2-.1.3.1.5.1.2-.2-.2-.1-.4-.2-.6-.2H78h-.1c-.3.1-.4.3-.5.5l-.2.2v.1l-.2.2c-.2.3-.5.6-.8 1-.6.7-1.3 1.5-2.4 2.6-.5.1 2.7-3.8-.1-1.3-1.1.7-4.5 3.1-10 8.9-.3.5-1.7 2-3.4 3.7.2-.2.5-.6.6-.7L57 27c2.8-3.6 6.6-6.3 9.4-9.9l-.1-.6c2.5-2.5 5.7-6 7.1-7.8-3.9 3.7-4.6 4.6-8.7 9-.8.4 2-2.8 2.4-3.3l-.4.8c2.7-2.4 4.5-4.4 6.4-6.5.5-.5 1-1.1 1.5-1.7.5-.6 1-1 1.8-1.4 1.4-.6 3.6-.5 5.1 1 .8 1 .3.4 0 .3 1.2 1.1 1.7 3.1 1.1 4.7-.3.8-.8 1.5-1.5 2.1l-1.9 1.9c-2.5 2.5-5 5-7.3 7.7l1.4-1.8C70.1 25 63.8 32 57.6 39l.1.2c.8-.6-1.7 1.8-3.1 3.1-3.1 3.5-6.2 6.8-8.6 9.6.9-.7 2.1-1.7 3.3-2.9.9-1.2 7.1-7.1 5.9-6.7 3-2.6 7.2-7.4 9.4-9.3-4 3.5 2.2-3 2.7-3.9 1.5-1 5.5-5.6 5.4-4.8.8-.7-2.1 1.6-3.5 3.4-3.6 4.2 7.5-6.9 2.9-1.7 3-3.2 6.6-6.9 10.2-10.5l.7-.7c.1-.1.3-.3.4-.5.1-.2.3-.3.4-.5.5-.7.8-1.6.9-2.4.3-1.7-.1-3.5-1-4.9-1-1.5-2.4-2.5-4-2.9-1.5-.4-3.1-.1-4.4.5 0 0 .4-.2 1-.3.6-.2 1.4-.3 2.2-.2.8.1 1.5.4 2.1.6.5.3.9.5.9.5-1-.7-2.8-1.3-4.6-.9-1 .2-1.9.6-2.7 1.2-.2.1-.4.3-.5.5l-.4.4-.8.8c-2.1 2.1-4 3.9-4.3 4.1 1-1.1 2.2-2.2 3.4-3.5.6-.6 1.2-1.3 1.9-1.9.8-.8 1.9-1.5 3.2-1.8 0-.1-.7-.1-1.8.4-.5.3-1.1.7-1.6 1.2-.5.3-.9.8-1.3 1.2-1.7 1.7-3.4 3.5-3.6 3.5l-7.3 8.5 3.5-3.4c-1.9 2.4-9.4 9.4-14.9 14.7 2.6-3.6 8.1-8.1 13.5-13.9 3.9-4.3-3 2 .7-2-1.1.9-3.6 3.4-4.8 4.8L57.5 20c1.5-2 4.2-4.8 7.1-7.9 1.5-1.6 3-3.2 4.4-4.7.7-.8 1.4-1.6 2.1-2.3.2-.2.3-.4.5-.6l.4-.3c0-.1.1-.2.3-.3.6-.6 1.2-1.1 1.9-1.4-.9.6-1.6 1.2-1.8 1.5 1.7-1.6 4.1-2.3 6.4-2.1 1.1.1 2.2.4 3.2 1 .2.1.5.3.7.5.2.2.4.3.7.6l.2.2.3.3c.2.2.4.4.5.7 1.4 1.8 1.9 4.2 1.4 6.4-.2 1.1-.7 2.2-1.3 3.1-.9 1.2-1.2 1.4-1.7 1.9.3-.2.5-.5.8-.7.1-.1.3-.2.4-.4.1-.2.4-.4.5-.6.6-.7.9-1.4 1.2-2.1.5-1.3.6-2.5.4-3.9 0-.2.5 1.9-.5 4.3-.2.6-.6 1.2-1 1.7-.2.2-.5.7-.6.7l-.5.5c-.5.6-1 1.1-1.3 1.5.9-.9 1.5-1.3 1.8-1.6h.1l.1-.1s.1 0 .1-.1l.1-.1c.1-.1.1-.1.2-.1 0 0 0 .1.2-.1s.7-.6 1.4-1.9c-.3.7-.7 1.3-1.1 1.9-.6.7-.8.9-1.1 1.2-.5.6-1.1 1.1-1.6 1.7-1.1 1.1-2.3 2.3-3.8 3.7-1.7 1.3 1-1.5.5-1.4-2.8 3.1-4.7 3.9-8.7 8.4 5.8-5.6-1 2-2.8 4.1l1-.9c-1.5 2.1-3.1 3.6-4.6 4.6 2.2-2.5 4.6-4.6 3.6-4.3-1.5 1.6-3.1 3.1-4.7 5l1.4-1.8-7.6 7.8c-1 1.5-2.7 3.8-3.4 5.3-2.1 1.6-4.5 4.4-6.1 6.2l.7-.9c-1.8 1.6-4.5 4.3-6.9 6.8-1.2 1.2-2.2 2.4-3.1 3.3-.4.4-.7.8-1 1.1-.1.1-.2.3-.3.4v.1c-.1.1-.2 0-.1-.1 0 0 0-.1.1-.1.1-.1.2-.2.3-.4.2-.3.5-.6.7-.9 1.1-1.4 2.6-3.2 3.7-4.6 1.1-1.4 1.7-2.3 1-1.7-.4.3-1 .9-2.2 2l-2 2c-.8.8-1.6 1.7-2.7 2.7-1.8 1.8-2.1 2.5-2 2.8.1.3.4.5-.1 1.2 0 0-.1-.1-.3.1-1.3 1.2-.7 1.2-1.2 1.9 1-.8 1.8-1.6 1.8-1.8.3.1-.8 1-1.6 1.8.5 0 1.1 0 1.6-.1-2.7.6 2.4.2.8.6.7.1 1.5.1 2.3.1h2.8c3.7-.1 6.9-.4 9-.6 5.4.8 9.5-.1 18.4.3-1.4 0-3.8.1-5.7 0-5 .5 9.2.3 1.4.7 1.7-.1.1-.3-1.6-.2-3 .1-5.8.3-5 .5l7.2.4-2.5.1 10.9.6c.3-.1-.7-.2-1.3-.3 12.7.3 27.2-.1 38.3 0 2.1-1.4 27.3-.6 36.3-1.5-2.4.4-3.7 1.1-2.2 1.4-2 .1-6.1.6-10.6.5-.7-.2-6.3-.5-2.7-.7-12.5.2 1.7.6-2 1.1 13.9-.1 22-1 30.8-1.3l.2.2 6.6-.3c-5.4-.1-5.1-.9 1.8-.6h-.8c4 .3 12.3-.1 18.5 0l4.2-.5c6.2.1 6.5.9 8.5 1.4 9.8.1 15.4-.6 22.3-1.1 3.1.4 17.7.5 10 .9 8.8-.3 7-2.3 22.1-1.2l-3.9.4c14.4-.1 35-.8 41.6-.4-5.3 1.3 18 1.3 20.6 2.6-.7-.3 4.7-.4 5.5-.5 1.2.1 3.2.3 5.3 0-5.6-.3 4-1.3-6.8-.8C319 71.7 326 71 338 71l-.2.5-9.4-.2c1 .4-3.9.4-5.9.5 17.5.3-2.3 1.2 15.6 1.2 1.7-.3.6-.2 5.3-.3-2.2 0-2.6.4.9.4l3.4-.4c6.3.9-10.4.6-5 1.2-6.9.4-18.9.6-16.7 1.3 11.3.2 10.2-1.3 22-1l1.3.3c4.2-.2 4.7-.7 6.9-1.1.2.1 1.2.2 3.8-.1 3.3-.8 6-1.6 8.6-2.6 2.6-1 5-2 7.6-3.6-3.7 1.8-6.5 2.6-8.7 3.2-2.3.6-4 .9-5.8 1.1-1.8.2-3.5.4-5.9.6-1.2.1-2.5.1-4.1.2-1.7 0-3.6.1-5.8.1.7-.1 2-.1 3.6-.2s3.3-.1 5-.3c3.3-.3 6.4-1.1 6.7-1.5l-.1.5c5.3-1.2 10.4-2.9 16.6-5.6l-1.8 1c-.9.5-1.8.9-1.8.9 4.1-1.8 7.5-3.5 10.5-5.2 3-1.8 5.7-3.7 8-6.4-1.9 1.6-3.5 2.9-4.7 3.9 3.6-2.9 7.9-6.8 11.1-10.7 0 0 1.5-2.1 2.8-4.4 1.3-2.2 2.4-4.6 2.4-4.6.1.1.9-1.3 1.6-2.3.6-1.1 1.1-1.8.6-.3 1.8-3.3 2.7-5.9 3.3-8.2.6-2.3.9-4.2 1.2-6.3.5-1.8.7-2.3.7-2.1 0 .3-.1 1.4-.4 2.7-.5 2.7-1.5 6.3-1.3 6.7 1.9-5 2.9-10.4 3.2-15.2.1-1.2.1-2.4.1-3.5V9.4c0-1.1.3-2.2.6-3.1.8-2 2.1-3.5 3.7-4.5 1.5-1 3.3-1.5 4.8-1.6-2.3 0-3.9.8-4.9 1.3-1 .5-1.4.9-1.3.7.2-.1.7-.5 1.6-1 .9-.5 2.2-1 3.7-1.1 1.5-.2 3.1 0 4.6.6 1.5.6 2.7 1.5 3.6 2.4 0 0 .7.6 1.2 1.2.6.7 1 1.5 1 1.5.4 1 .6 1.9.7 2.7V10.2c-.1.5-.1.7-.2.7s-.1-.3-.2-.9c0-.4 0-.2-.1-.7 0-.4-.1-.7-.2-1-.1-.7-.4-1.4-.8-2.2.4.9.7 1.9.8 2.9.1 1.2.1 1.5.1 2.1v3.5c0 2.4-.2 4.8-.8 6.9.3-3.7.6-7.8.6-11.5v-.4c0-.2 0-.5-.1-.7 0-.4-.1-.8-.2-1.2-.2-.8-.5-1.5-.9-2.2-.5-1.4-1.5-2.5-2.6-3.3-2.3-1.6-4.8-1.8-6.4-1.6 1.7-.2 3.3.1 4.7.7 1.4.6 2.5 1.5 3.4 2.5.9 1 1.5 2.2 1.8 3.3.2.6.3 1.2.3 1.7V10.1c-.1 2.5-.3 4.5-.6 6.7-.3 2.1-.7 4.4-1.3 7.3-.6 2.9-1.4 6.4-2.8 11-.2.2.5-3-.7.5-1.4 4-1.5 4.6-1.2 4.5.3-.1.8-.8.5.5 1.2-3.1 1.9-5.4 2.6-7.4.7-2 1.3-3.6 1.9-5.5l-.1 1.8c-.2.2-1.3 4.3-1.9 5.4l.2 1.2c-.2-.3-1 1.1-2 3.1-1 2.1-2.2 4.8-3.3 7.2 1.4-2.3 1.9-3.1 2.2-3.5.3-.4.5-.3 1.1-.9-1.2 3.6-2.3 5.4-3.6 7.3-1.2 1.9-2.5 3.8-4.6 7.5.3-.6 4.1-6.8.5-1.6-1.5 2.2-2.1 3.1-2.5 3.9-.4.8-.7 1.5-1.8 2.9 1.1-1.7 1.3-2.4 1.6-3.2.3-.8.6-1.6 1.5-3.5 2.5-3.8 2.9-4.7 3.4-5.4.4-.8.9-1.5 2.8-5.6 0 0-.9 1.7-1.9 3.3-1 1.6-2.1 3.2-2.1 3.2 1.9-3.3 2.4-4.7 2.5-5.2.1-.5-.2-.3-.2-.6-1.6 2.9-2.7 4.8-3.6 6.2-.8 1.4-1.3 2.4-1.8 3.2-.9 1.7-1.3 3-4.1 6.2-1.2 1.7.1.2 1.2-1.1 1.1-1.3 1.9-2.4.1.2-2.5 3.1-2.8 3.4-3.1 3.9-.3.5-.6 1.2-3.7 4.4l.9-1.2c-2.2 1.7-3.9 3.8-6.3 5.9-1.3 1.1-.3.9-.3 1.5 0 .3-.3.8-1.3 1.8s-2.8 2.4-5.9 4.3c.5-.5.7-.7.7-.8 0 0 2.5-2.8 4.5-5.8 2.1-3 3.9-6.1 3.9-6.1-5.2 4.7-11.5 9-18.6 12.4-7.1 3.3-15 5.6-23 6.6-1.9-.2.9-.7 4-1.4s6.5-1.7 6-1.8c0 0 1.8-.4 3.5-1 1.7-.5 3.5-1.1 3.5-1.1-.1.3-3.7 1.6-6.5 2.5-2.8.9-4.9 1.4-1.5.9 6.3-1.8 10.6-3.6 14.8-5.7 4.1-2.1 8.1-4.5 12.7-8.5-1.8.8-5 3.2-8.9 5.6-3.9 2.3-8.5 4.5-12.3 5.5 3.1-1.1 5.7-2.3 8.1-3.6-6.7 3.2-14.3 5.7-22.6 6.7l-1.8.5c5.6-.6 9.5-1.6 10-1.7-7.3 1.9-13.7 2.7-14.1 3.3l1.4-.1-1.4.2-1.4.2c-2 .1-3.8 0-5.5 0zM34.7 117.2c.4.3.7.5.9.6-.2-.1 0 .2-.9-.6zm383-96c.5-2.5.8-5.1.9-7.7 0-.6.1-1.3.1-1.9V9.8c.1-.9.5-1.8 1.2-2.4.7-.6 1.5-1 2.5-.9.8 0 1.7.4 2.4.9.6.6 1 1.4 1.1 2.3v1.7c0 .6 0 1.2-.1 1.8.1-1.1.2-2.2.3-3.1.1-.8-.1-1.6-.5-2.2-.8-1.4-2.3-2.1-3.6-2-1.4 0-2.5.7-3.2 1.4-.7.7-1 1.4-1.2 1.8-.2.4-.3.4-.3 0s.1-1.4 1-2.5c.5-.6 1.1-1.2 2.1-1.5 1-.4 2.2-.6 3.5-.2 1.3.3 2.7 1.3 3.5 2.8.4.7.6 1.6.6 2.5v4.6c.1-1 .2-2.1.2-3.4 0-.6.1-1.2 0-2.1-.1-.8-.4-1.6-.9-2.3-.9-1.4-2.6-2.5-4.4-2.6-1.8-.2-3.7.6-4.8 2-.4.6-.9 1.4-1 2.4-.1.5-.1 1.1 0 1.6 0 .5.1 1 .1 1.6.2 2.2.2 4.7.1 7.1-.1 2.4-.3 4.5-.5 6.1-.2 1.6-.3 2.6-.3 2.6.8-1.7 1.1-4.3 1.7-7.6l-.5 1zm-3.6 6.5c-.8 2.7-1.2 3.7-1.3 4.2-.1.5.1.4 0 .9.7-1.9 1.2-3.8 1.7-5.7-.2.8-.4 1.1-.4.6zm-.9 4.9c.2-.6.4-1.1.5-1.4l-.5 1.4zm-17.7 39.2c.2-.2.3-.2.5-.4-1.1.8-2.2 1.5-3.4 2.3.4-.2 1.3-.8 2.9-1.9zm9.3-7l.6-1.3c-.9.9-1.8 1.8-2.8 2.6.5-.1.9-.3 2.2-1.3zm20.9-31.2c.1-1.2.7-3.8 1.1-6.1.4-2.3.6-4.5.3-4.8-.1-.5-.4 1.1-.8 2.9-.4 2-1 4.2-1.7 6.5.1.1 0 .6-.2 1.4.8-2.2 1.3-3.7 1.4-2.7-1.2 2.8-1.6 4.1-1.8 5.5-.3 1.4-.5 2.9-2 5.9-.2 1 .7-.6 1.6-2.7 1-2.2 1.9-4.9 2.1-5.9zM33.4 62.2c.2-.1.7-.4 1.5-.9l-2.8 3.2c-2 1.9-4.1 3.8-6.2 5.6-2.1 1.9-4.2 3.8-5.9 5.6 1.5 0 3.1-.1 4.8-.3 2.7.2 3.9.6 5.4.9-1.7 0-3.2-.1-4.5-.1-3.2.2-5.8.3-7.8.3 1.9-2 3.4-3.4 4.5-4.4 1.2-1 2-1.7 2.9-2.3.9-.7 1.8-1.4 3-2.5 1.3-1.1 2.8-2.6 5.1-5.1zm58.4 14.7c-.8 0-1.1.1-1.1.1 18.1-1.2 33-1.5 42.8-1.4-1.9-.5-10.6-.8-14.8-1l3.7-.5 2.3.4 6.3-.5c-1.8-.4-7-.3-10.4-.5-.3.1-11.4.7-14.4 1l8.8.4c-2.4-.1-14.1 0-18.7.1-.1.3 7.9.7 8.9.1 1 .4-8.3.4-2.4.8-6.9.4-17.9.1-23-.1l-.9-.7c-5.6-.3-3.8.8-10.4.4 8.2-.1-1.4-.7 5.1-.8-2.1-.2 0-.7-6.6-.6-5.4.9-6.9-.5-12 .2-3.4-.3 3.7-.5-3.1-.6-7.7.5-7.3.8-7.8 1.4 7.2.2 8.1-.8 14-.7l-11.8 1.1c2.2.2 3.8.2 5.1.1-2.4.1-4.4.2-6.1.4-1 .1-1.9.2-2.7.3 6.7 0 12.6 0 13.6.3l-.8.4c2.4.3 6.2.1 8-.2 6 0 11.9-.5 13.2-.1l-2.3.3c7.5 0 8.3-.1 17.5-.1zm240.8.7c-4.5-1.1-9.4-2.1-30.1-1.9l1.6-.1c-10.5-.7-20.4.9-33.1.1 6.2-.4 5.8-.4 12.7-1.3l-6.6.3c1.8-.6-4.8-.3-9.6-.3l4.3-.7c2.9.2 10.5.3 10.3.1-1.7.1 10 .9 16.3.7-.7-.5-14-.3-8-1.1-5.3.3-5.9-.2-11.4 0 5.3-.3 1.3-.7 5.2-1l-9 .2c-.2-.2 13.1-.4 5.7-1-3.6.3-13.3-.1-13.4.5l-.2-.2c-6.8-.1-3 .7-11.3.4-.1.3 1.5.4 4.5.4 2.5-.1 2.9-.5 8.1-.6 2.3.4-6.2-.1-2.6.6 1.8.3 13.7-.3 9.9.5l-6.7-.1c-.2.5-5.1.5-4.9.9-4.1.2-8-.4-12.2.1-1.7.3 1.3 1-5.7.7-5.4-.8-21.5-.6-27.5-.5l-5.3.3c.4.3 10.1 0 6.7.4l-8.2.1.6-.2c-2.7 0-5.5.2-8 .3 2.6-.4 8.5-.2 7.3-.8-3.9-.1-4.4-.3-8-.2.8 0 1.4-.1 1.3-.2-7.8-.2-7.5.6-9.5.8-7.8.7 7.9.7 6.9 1.2l-22.9.3c2-.2 3.9-.4 3.2-.6-5.6-.3-.1-.4-8-.4.6.8-9.9.5-15.5.9-2.6-.3-3.1-.4 2.6-.4-.7-.5-8.3-.3-11-.3-1.6.1-4.3.2-6 .3 2.3.2 1.3.5-3.6.8l-.3.1c8.1.1 20.6.7 25.7.2l-1.4.2c9.4.4 20.4-.9 24.7 0-.4.4 1.9.1 1.7.6l6.9-.4-1.4.2 11.7-.1-.3.1c5.6-.5 9.9-.9 13.4-1.2 0-.2-.3-.3 1.5-.5 1.9-.1 3.3-.1 4.5-.1 2.9.1 4.8.4 8.3.5l-10.9.1c-.9.4 0 .8 5.4 1.1-2.2 0-3.1.3-.4.4.3-.1 7.1-.3 4.5-.6 10.4-.1 27.1.9 42.8.1-11.3.4 9 .5-3.5.7 8.7.6 7.5-.6 16.4-.5.8.2-4.9 0-6.9.4 14.8.3 25-1 39.4-.8l.6.5c2.6.2 5.6.1 8.7 0zm28.5-1.3c2.8-.5 5.5-1.1 8.3-2-.3.1-.5.1-.8.2 0 0 2-.6 3.9-1.4l3.8-1.6c-2.4.9-4.5 1.4-5.1 1.4-.6 0 .3-.4 3.5-1.8-.5.4 1.5-.1-.7.9 2.3-.7 5.9-2.1 8.4-3.5 2.6-1.4 4.1-2.5 2.8-2.1-3.8 2.6-4.4 2.5-4.8 2.5-.4-.1-.5-.3-3.7 1.4 3.3-1.9 6.7-3.5 9.7-5.7-1.5 1.2-1.2 1.3.1.7 1.3-.6 3.5-1.9 5.8-3.6.9-.8 2.7-2.3 4.5-4 1.8-1.7 3.6-3.8 4.9-5.4-.6.4-.4-.1-.6-.1-.2 0-.7.6-3 2.9 1.6-1.8 4-4.7 6.6-8-.9 1.4-2.6 3.8-2.4 3.7 2-1.9 3.9-4.6 4.9-6 .7-1.2 1.4-2.5 2.1-3.7-.2.3-.5.6-.6.8 0 0 .5-1.1.9-2.2s.9-2.2.9-2.2c-1.2 2.9-1.7 3.4-1.7 3.3-.1-.1.2-.9.1-1 .4.4 1.9-3.5 2.6-5.5l-1.2 2-1.2 2c.4-1 1.3-2.8 1.9-4.2.6-1.4 1-2.4.6-2-1.8 4.5-3.4 7.4-5 10.2-1.6 2.8-3.3 5.4-6 8.8 0 0 .6-.6 1.3-1.2l1.3-1.3c-1.4 2-2.5 3.3-3.3 4.1-.8.9-1.5 1.4-2.1 1.9-.7.5-1.4 1.1-2.4 1.9-1 .9-2.4 2.1-4.6 3.8-1.7 1.6-5.1 4-8.2 5.8-3.1 1.8-5.9 3.1-5.9 3.5.6-.4-1.1.2-3.3.9-2.3.7-5.2 1.5-7 2.1-1.9.9-6.1 1.8-9.4 2.2-3.2.4-5.5.5-3.5.6 3.5-.1 8.1-1.1 10.9-1.2 0 0-1.7.4-3.3.7-1.7.3-3.4.5-3.4.5s1.1 0 2.2-.1c1.1 0 2.2-.1 2.2-.1-2.4.3-2.2.7-1 1.1zM411 48.1c0 .1-.1.1-.1.2 0-.1 0-.2.1-.2z"/>
        <path d="M63.3 19.4c-1.3 1.5-4.7 4.9-3.8 4.5-.3-.2 6.1-6.2 3.8-4.5z"/>
        <path d="M58.9 23.2c-.2.3.1.3-1.4 1.8l4.2-4.3-2.8 2.5z"/>
        <path d="M52.5 25.5c-2 2.4-3.2 3.9-6.7 7.4-2 .6 5.4-5.8 6.3-8.1-6.4 6.2-7.7 8.8-12.8 14.1 2.9-2.4 13.6-12.7 13.2-13.4z"/>
        <path d="M54.4 21.7l-3.3 3.7.4-.3 3.3-3.7z"/>
        <path d="M30.4 56.6c-.3 0-.9.7-1.6 1.4-1.2 1.3-2.5 2.7-3.5 3.7.8-.8 1.8-1.7 2.8-2.8l.8-.8.5-.5c.4-.2.7-.6 1-1z"/>
        <path d="M48.8 124.7l27 26.5c-7.8-7.6-14.9-14.7-27-26.5z"/>
        <path d="M122.4 79.7c-10.2.3-14.7.9-25 1 13.6.7 18-1 29.4-.4l-4.4-.6z"/>
        <path d="M118.8 82.3c-1.7-.6 7.8-.7 6.4-1.2-6.8.1-3.2.6-9.4.5l3 .7z"/>
        <path d="M72.8 72.2l3-.3-2.4.1z"/>
        <path d="M165.1 81.8l-1.1.1 5.1.2z"/>
        <path d="M162.8 82.1l1.1-.1-1.1.1z"/>
        <path d="M76.7 70.9l-4.6-.1-2.2.3z"/>
        <path d="M117.1 74.2l-4.1.2c.8-.1 6.4.2 4.1-.2z"/>
        <path d="M196.2 82l5-.2-.5-.1-5 .3z"/>
        <path d="M149.2 72.5c-2.8-.5 8.2-.1 2.3-.5-5.1 0-3 .3-2.3.5z"/>
        <path d="M209.3 75.7c.7 0 1.4 0 2.1-.1-.8 0-1.5.1-2.1.1z"/>
        <path d="M209.3 75.7c-2.2 0-4.3-.2-5.8 0 2.7.2 3.7.1 5.8 0z"/>
        <path d="M234.2 75.6h-2c2-.2 1.1-.2-.7 0-2.1 0-2 .2-2.2.3-.4.1-.8.1-1.3.2.6-.1 1.2-.1 1.7-.2 3.2-.1 5.2-.1 4.5-.3z"/>
        <path d="M326.5 83.5c-7.3-.2-9.1-.3-8.8-.6-6.9-.1-5.8.5-10 .7 7.9-.1 9.5 0 18.8-.1z"/>
        <path d="M307.8 83.5h-2.7c1.1.1 1.9.1 2.7 0z"/>
        <path d="M205.1 71.6l4.5-.6-1.6.1z"/>
        <path d="M337.3 83.7c-1.3 0-3.5 0-4.6-.1-.4.3 5.9.1 4.6.1z"/>
        <path d="M309.3 76.5c-.7-.2-5.4-.1-7.3-.2 2.7.1 4.9.8 7.3.2z"/>
        <path d="M358.8 81.8c-1.5.1-3.7 0-2.8-.3-1 .2-2.3.4-2.3.6 0 0 1.2.2 5.1-.3z"/>
        <path d="M322.6 76.6l-1.1-.1-5 .2z"/>
        <path d="M304.8 71.2c-5.6.4 8.9 1.1-.8 1.4 12.4.5-1-.6 8.2-.5-5.3-.2-7.9-.7-7.4-.9z"/>
        <path d="M312.3 72.1h2.5-2.5z"/>
        <path d="M387.8 63.4c-.6.5-1.1.8-1.5 1.1.6-.3 1.1-.7 1.5-1.1z"/>
        <path d="M341.5 71.7l-8.4.7c5.6-.4 19.7-.4 18.7-1.1-4.4-.1-10 0-12.2.3l1.9.1z"/>
        <path d="M422.2 29.1l-.4 2c-.2 1-.5 2-.5 2l.8-2.4c.4-1.2.7-2.4.7-2.4-.5 1.3-.3-1.4-.6.8z"/>
        <path d="M423 27.2l-.2.9c0-.1.1-.4.2-.9z"/>
        <path d="M374.2 70.9c-2.5.9-4.5 1.5-6.9 2.3.5-.1 2.4-.5 4-1 1.8-.6 3.2-1.2 2.9-1.3z"/>
        <path d="M422.4 10c-.1-.1 0 0 0 0-.1-.1 0 0 0 0 0-.1 0-.1 0 0h-.1.2c.1.1-.1.1-.1 0 0 0 0-.1 0 0z"/>
        <path d="M417.5 28l-.4.9s-.2 1.1-.5 2.2l-.6 2.2.4-.9.6-2.2c.2-1.1.5-2.2.5-2.2z"/>
        <path d="M412.1 10.4c-.1 3.7.1 6.7.3 5.7 0 0 .2-1.8.2-3.6V10v-.4-.5c0-.3.1-.5.1-.7.1-.4.1-.6.1-.6-.2.5-.3.9-.4 1.3 0 .2-.1.4-.1.6v1.6c0 .8.1 1.9-.1 4 0 0 0-1.2-.1-2.3.1-1.4 0-2.5 0-2.6z"/>
        <path d="M243.6 79.7c1.8-.3 10.4-.1 10.8.2-1.2.1-5.8.3-2.9.5l6.8-.8c9 .5-6.9 1.1-11.3 1.4 9.2.1 11.9-.4 21.7-.4-2.9-.1-4.7-.3-6.2-.5-.3-.6 8.8-.3 15.3-.4-4.2-.3-1.8-.5 1.3-.7.5 0 .9-.1 1.2-.1.4 0 .7-.1 1-.1h-.8c.1-.1-.1-.1-.7-.3-5.5.2-9.7-.3-13.2-.3 3.5 1-12 .2-16.4.5l-5.1.1h-1.9c-.4-.1.2-.2 3.1-.4-2.4.2-10.6.1-9.8.4h-18.6c-.6 0-1.2-.1-1.6-.2-.6.1-.8.1-.7.2l-80.8.1c4 .1 7.4.3 11.5.4-6.2.6 6.7.1 4.9.7-2.8.2-6.8.1-9.3 0-.9.3 2.5.6 2.1.9 10.2.4 11.8-1.1 21.7-.9-.4.4-3.5.7 3 .6l-1.7.1c10.4-.4 8.1.8 14.7-.2l-.2.5c4.7-.4 14-.4 19.1-.5l-.3.1c14.6-.6 8.2-.1 24.5-.4l-7.5.6c5.6.3 6.9-.4 11-.3-.3.1.6.5-3.2.6l19.9-.9c5-.3-.7-.3-1.4-.5z"/>
        <path d="M268.7 80.4h3.7c-1.4.1-2.6 0-3.7 0z"/>
        <path d="M129.1 78.8h5.7-5.7z"/>
        <path d="M297.2 79.3c-3.4-.3 2.6-.4 3.2-.6h-12.3c.1.2-1.2.4-.9.6h10z"/>
        <path d="M284.4 78.3c-.4.1-1.7.3-3.2.4h6.8c0-.1-.8-.3-3.6-.4z"/>
        <path d="M285.7 89.2h-2.1l-3.3.1z"/>
        <path d="M251.6 88.3c2.6.3 7.6.1 9.2 0-5.7 0-3.2-.1-9.2 0z"/>
        <path d="M258.6 91.6l-5.5.2h.6z"/>
        <path d="M87.1 80.9h-2.7 2.7z"/>
        <path d="M134.3 80.4c-13.1-.6 8.6-.5 4.5-1.3l-7.1.3.6-.2-8.7.1c1.8.3 3.1.4 2.7.7-11.6-.1-3.7-.4-12.2-.9l-13 .1 1.1-.1c-1.1 0-1.6.1-2 .1l-43.7.2c-8 .3 4.4.7-1.5 1.2 9.2 0 22.9.4 23.7-.3-.3.1-.9.3.9.4l5.3-.6-5.1-.2c5.4-.6 22.7-.5 25.8-.1-9.9.2-4.9.9-18.6.5.6.2 3.1.5 0 .6 16.2-.2 30.6.1 47.3-.5z"/>
        <path d="M47.5 122.5h-.1c.1.1.2.2.1 0z"/>
        <path d="M43.7 118.6l-6-5 8.7 8.6 1 .3c-.9-.7-4.1-3.5-5.1-4.8l1.4.9z"/>
        <path d="M30.9 107.4c4.6 4.3 4.8 3.7 2.5 1 4.3 3.9 1.7 2.6 5 5 .2-.4-5-5.3-6.2-6.4l-1.3.4z"/>
        <path d="M41.9 80l-1.8.3h4.4z"/>
        <path d="M40.1 80.3l-6.5-.1c.6.2 1.1.4 2.4.5 0 0 1.3-.1 2.5-.2l1.6-.2z"/>
        <path d="M13.6 80c-2.9 0-6-.1-9.9-.1l1 1-1-1 9.9.1z"/>
        <path d="M22.5 80.2l-.3-.1-8.6-.1c3.2.1 6 .1 8.9.2z"/>
        <path d="M33.6 80.2c-.7-.2-1.4-.4-3.5-.6-2-.1-5.4-.2-11-.2l3 .6 11.5.2z"/>
        <path d="M218.7 91l-5 .2.5.1 5-.3z"/>
        <path d="M190 90.6c-1.2.1-2.2.1-3 .2 1.3 0 2.4-.1 3-.2z"/>
        <path d="M168.8 93.4c-5.8-.4 8.1-.6-2.8-.7-1-.4 4.1-.9 9.2-.7-.4.4-5 .2-1.8.6 3.4-.4 4.7-.1 3.5-.7 5.7-.3 6.3-.7 10.2-1.1-6.9.2-21.3-.3-30 .4-4.8.7-1.9 1.6-1.9 2.5.6.2 13.1.3 13.6-.3z"/>
        <path d="M177.9 94.4c2.7 0 3.5 0 5.2-.1-.4-.3-3 0-5.2.1z"/>
        <path d="M115.9 87.2c-.5.1-5.4.3-4.4.5l7.4-.2c-1.7 0-2.3-.1-3-.3z"/>
        <path d="M122.2 87.5l-3.3.1c.8 0 1.8-.1 3.3-.1z"/>
        <path d="M115.5 87.1c.1 0 .2.1.4.1.1 0 0-.1-.4-.1z"/>
        <path d="M19.1 95.5c-.5-.1 3.9 4.1 6.1 6.1-1.7-1.7-4-4.1-6.1-6.1z"/>
        <path d="M55.4 129.3l-1.9-2.2c.6.8.9 1.2 1.9 2.2z"/>
        <path d="M18.5 102.5c-.1 0-.3-.1-.5-.3.3.2.4.3.5.3z"/>
        <path d="M18 102.2c-1.6-1.3-5.7-5.8-7.5-7.2l.3.1-3.1-2.8c2.8 2.8 8.5 8.5 10.3 9.9z"/>
    </g>
</symbol><symbol id="icon-arrow" viewBox="0 0 1792 1792">
    <path d="M1395 736q0 13-10 23l-466 466q-10 10-23 10t-23-10L407 759q-10-10-10-23t10-23l50-50q10-10 23-10t23 10l393 393 393-393q10-10 23-10t23 10l50 50q10 10 10 23z"/>
</symbol><symbol id="icon-burger" viewBox="0 0 24 24">
    <title/>
    <g fill-rule="evenodd">
        <path d="M1.5 6c-.276 0-.5.214-.5.505v.99c0 .279.218.505.5.505h21c.276 0 .5-.214.5-.505v-.99A.499.499 0 0 0 22.5 6h-21zm0 5c-.276 0-.5.214-.5.505v.99c0 .279.218.505.5.505h21c.276 0 .5-.214.5-.505v-.99a.499.499 0 0 0-.5-.505h-21zm0 5c-.276 0-.5.214-.5.505v.99c0 .279.218.505.5.505h21c.276 0 .5-.214.5-.505v-.99a.499.499 0 0 0-.5-.505h-21z"/>
    </g>
</symbol><symbol id="icon-facebook" viewBox="0 0 60 60">
    <title/>
    <g fill-rule="evenodd">
        <path d="M25.462 47.314V30h-3.519v-5.74h3.52v-3.47c0-4.682 1.399-8.058 6.525-8.058h6.098v5.727h-4.294c-2.15 0-2.64 1.43-2.64 2.926v2.875h6.617L36.866 30h-5.714v17.315h-5.69z"/>
    </g>
</symbol><symbol id="icon-github" viewBox="0 0 60 60">
    <title/>
    <g fill-rule="evenodd">
        <path d="M25.425 47.517c0-.45-.016-1.64-.025-3.22-5.135 1.143-6.218-2.538-6.218-2.538-.84-2.187-2.05-2.77-2.05-2.77-1.677-1.174.126-1.15.126-1.15 1.853.134 2.828 1.951 2.828 1.951 1.647 2.893 4.32 2.058 5.373 1.574.168-1.224.645-2.058 1.172-2.531-4.1-.478-8.41-2.102-8.41-9.356 0-2.066.72-3.756 1.901-5.08-.189-.478-.824-2.402.182-5.009 0 0 1.55-.509 5.076 1.94a17.275 17.275 0 0 1 4.623-.637c1.567.007 3.146.218 4.622.638 3.523-2.45 5.071-1.94 5.071-1.94 1.008 2.604.374 4.529.184 5.009 1.183 1.323 1.897 3.013 1.897 5.08 0 7.271-4.317 8.871-8.43 9.34.664.584 1.254 1.74 1.254 3.506 0 2.53-.024 4.572-.024 5.193 0 .507.333 1.095 1.27.91 7.33-2.508 12.615-9.599 12.615-17.959 0-10.455-8.267-18.93-18.463-18.93-10.194 0-18.46 8.475-18.46 18.93 0 8.363 5.29 15.458 12.626 17.961.923.173 1.26-.411 1.26-.912z"/>
    </g>
</symbol><symbol id="icon-linkedin" viewBox="0 0 60 60">
    <title/>
    <g fill-rule="evenodd">
        <path d="M21.883 43.823V25.524h-5.656v18.3h5.656zm0-24.785c-.034-1.637-1.125-2.884-2.898-2.884-1.773 0-2.932 1.247-2.932 2.884 0 1.602 1.125 2.885 2.864 2.885h.034c1.807 0 2.932-1.283 2.932-2.885zm9.227 24.785V33.397c0-.558.04-1.116.204-1.513.449-1.116 1.47-2.27 3.184-2.27 2.246 0 3.654 1.274 3.654 3.783v10.426h5.694V33.118c0-5.734-3.061-8.402-7.144-8.402-3.348 0-4.817 1.871-5.633 3.145l.04-2.447h-5.684c.082 1.752 0 18.41 0 18.41h5.685z"/>
    </g>
</symbol><symbol id="icon-mail" viewBox="0 0 50 50">
    <path stroke-linecap="round" stroke-miterlimit="10" stroke-width="2" d="M1 8h48v34H1z"/>
    <path d="M0 0h50v50H0z"/>
    <path stroke-miterlimit="10" stroke-width="2" d="M33.357 25.662L48.89 37.943"/>
    <path stroke-miterlimit="10" stroke-width="2" d="M1.11 37.942l16.206-12.815"/>
    <path d="M1.11 12.053s18.4 16.037 19.899 17.342S24.069 31 25 31s2.492-.299 3.991-1.604S48.89 12.054 48.89 12.054" stroke-miterlimit="10" stroke-width="1.996"/>
</symbol><symbol id="icon-person" viewBox="0 0 512 512">
    <path d="M448 448s0-26.4-2.2-40.2c-1.8-10.9-16.9-25.3-81.1-48.9-63.2-23.2-59.3-11.9-59.3-54.6 0-27.7 14.1-11.6 23.1-64.2 3.5-20.7 6.3-6.9 13.9-40.1 4-17.4-2.7-18.7-1.9-27 .8-8.3 1.6-15.7 3.1-32.7 1.8-21-17.7-76.3-87.6-76.3-69.9 0-89.4 55.3-87.5 76.4 1.5 16.9 2.3 24.4 3.1 32.7.8 8.3-5.9 9.6-1.9 27 7.6 33.1 10.4 19.3 13.9 40.1 9 52.6 23.1 36.5 23.1 64.2 0 42.8 3.9 31.5-59.3 54.6-64.2 23.5-79.4 38-81.1 48.9C64 421.6 64 448 64 448h384z"/>
</symbol><symbol id="icon-phone" viewBox="0 0 50 50">
    <path d="M0 0h50v50H0z"/>
    <path d="M30.217 35.252s4.049-2.318 5.109-2.875c1.057-.559 2.152-.7 2.817-.294 1.007.616 9.463 6.241 10.175 6.739.712.499 1.055 1.924.076 3.32-.975 1.396-5.473 6.916-7.379 6.857-1.909-.062-9.846-.236-24.813-15.207C1.238 18.826 1.061 10.887 1 8.978.939 7.07 6.459 2.571 7.855 1.595c1.398-.975 2.825-.608 3.321.078.564.781 6.124 9.21 6.736 10.176.419.66.265 1.761-.294 2.819-.556 1.06-2.874 5.109-2.874 5.109s1.634 2.787 7.16 8.312c5.527 5.526 8.313 7.163 8.313 7.163z" stroke-miterlimit="10" stroke-width="2"/>
</symbol><symbol id="icon-social" viewBox="0 0 50 50">
    <path d="M0 0h50v50H0z"/>
    <path d="M24.933 33.528c-.146-1.612-.09-2.737-.09-4.21.73-.383 2.038-2.825 2.259-4.888.574-.047 1.479-.607 1.744-2.818.143-1.187-.425-1.855-.771-2.065.934-2.809 2.874-11.499-3.588-12.397-.665-1.168-2.368-1.759-4.581-1.759-8.854.163-9.922 6.686-7.981 14.156-.345.21-.913.878-.771 2.065.266 2.211 1.17 2.771 1.744 2.818.22 2.062 1.58 4.505 2.312 4.888 0 1.473.055 2.598-.091 4.21C13.367 38.238 1.546 36.916 1 46h38c-.545-9.084-12.315-7.762-14.067-12.472z" stroke-linecap="round" stroke-miterlimit="10" stroke-width="2"/>
    <path d="M36.422 40.587H49c-.457-7.649-10.37-6.534-11.847-10.5-.122-1.359-.075-2.306-.075-3.547.616-.323 1.717-2.378 1.903-4.115.481-.041 1.245-.511 1.47-2.373.119-1-.36-1.562-.652-1.74.786-2.367 2.422-9.683-3.021-10.44-.56-.983-1.993-1.48-3.858-1.48-2.353.043-4.052.62-5.227 1.587" stroke-linecap="round" stroke-miterlimit="10" stroke-width="2"/>
</symbol><symbol id="icon-twitter" viewBox="0 0 60 60">
    <title/>
    <g fill-rule="evenodd">
        <path d="M41.052 18.437c-1.209-1.375-2.931-2.25-4.838-2.282-3.66-.061-6.628 3.032-6.628 6.908 0 .55.058 1.087.171 1.602-5.508-.358-10.393-3.226-13.662-7.55a7.332 7.332 0 0 0-.897 3.544c0 2.456 1.17 4.636 2.949 5.922a6.336 6.336 0 0 1-3.003-.916v.089c0 3.43 2.285 6.307 5.317 6.977a6.242 6.242 0 0 1-2.993.1c.843 2.813 3.29 4.866 6.191 4.934-2.268 1.883-5.126 3.004-8.232 2.998a12.627 12.627 0 0 1-1.58-.102c2.933 2.012 6.417 3.184 10.16 3.185 12.192.003 18.859-10.606 18.859-19.81 0-.301-.007-.601-.02-.9a13.634 13.634 0 0 0 3.308-3.557 12.65 12.65 0 0 1-3.807 1.041 6.797 6.797 0 0 0 2.914-3.806c-1.28.776-2.699 1.334-4.209 1.623z"/>
    </g>
</symbol></svg>