<?xml version="1.0" encoding="utf-8"?>
<!-- Generator: Adobe Illustrator 19.2.1, SVG Export Plug-In . SVG Version: 6.00 Build 0)  -->
<svg version="1.1" id="Layer_1" xmlns="http://www.w3.org/2000/svg" xmlns:xlink="http://www.w3.org/1999/xlink" x="0px" y="0px"
	 viewBox="0 0 454 106" style="enable-background:new 0 0 454 106;" xml:space="preserve">
<g>
	<polygon style="fill:#B9B2A0;" points="96.8,5.8 96.8,101.3 4.1,101.3 	"/>
	<polygon style="fill:#E6E3DA;" points="96.8,5.8 182.3,6 96.8,101.2 	"/>
	<linearGradient id="SVGID_1_" gradientUnits="userSpaceOnUse" x1="96.8312" y1="76.7587" x2="149.1206" y2="76.7587">
		<stop  offset="0" style="stop-color:#A69B95"/>
		<stop  offset="1" style="stop-color:#837D71"/>
	</linearGradient>
	<polygon style="fill:url(#SVGID_1_);" points="96.8,101.3 141.2,52.2 149.1,60.3 	"/>
	<linearGradient id="SVGID_2_" gradientUnits="userSpaceOnUse" x1="96.8312" y1="80.8325" x2="189.2227" y2="80.8325">
		<stop  offset="0" style="stop-color:#BBB2A0"/>
		<stop  offset="1" style="stop-color:#BAB1A0"/>
	</linearGradient>
	<polygon style="fill:url(#SVGID_2_);" points="149.1,60.3 189.2,101.3 96.8,101.2 	"/>
	<linearGradient id="SVGID_3_" gradientUnits="userSpaceOnUse" x1="96.8312" y1="80.8325" x2="189.2227" y2="80.8325">
		<stop  offset="0" style="stop-color:#C1BAAA"/>
		<stop  offset="0.3214" style="stop-color:#C1BAAA"/>
		<stop  offset="1" style="stop-color:#BAB1A0"/>
	</linearGradient>
	<polyline style="fill:url(#SVGID_3_);" points="96.8,101.2 149.1,60.3 189.2,101.3 	"/>
	<g>
		<path style="fill:#E6E3DA;stroke:#E6E3DA;stroke-miterlimit:10;" d="M247.5,59.9h-7.8l-2.9-8c-0.2-0.5-0.7-0.9-1.2-0.9h-16.5
			c-0.5,0-1,0.4-1.2,0.9l-2.9,8h-7.8l16.4-41.9h7.4L247.5,59.9z M228.5,30c0,0-1.5-2.4-2.4,0l-4.8,13c0,0-0.9,1.8,1.2,1.8h9.8
			c0,0,2,0.2,1.2-1.8L228.5,30z"/>
		<path style="fill:#E6E3DA;stroke:#E6E3DA;stroke-miterlimit:10;" d="M253.3,34.9h6.7v1.6c0,0.8,0.8,1.4,1.3,1.4h0.1
			c0.4,0,0.7-0.2,0.9-0.4c1.9-2,4.3-3.3,6.8-3.3c4.7,0,10.5,2.3,10.5,8.9v16.9h-6.7V45.6c0-3.3-2.3-6.8-6.1-6.8
			c-3.5,0-6.8,3.1-6.8,6.8v14.3h-6.7V34.9z"/>
		<path style="fill:#E6E3DA;stroke:#E6E3DA;stroke-miterlimit:10;" d="M316.7,34.9l-19.8,39h-7.8l8.3-16.4c0.2-0.4,0.2-0.9,0-1.3
			l-11.7-21.4h7.7l7.1,13.5c0,0,1.3,2.3,2.3-0.1l6.1-13.4H316.7z"/>
		<path style="fill:#E6E3DA;stroke:#E6E3DA;stroke-miterlimit:10;" d="M353.2,59.9l-15.6-18.4c0,0-2.3-1.7-2.3,0.9v17.6h-7.3V18.1
			h7.3v16.8c0,0,0.7,2.8,2.3,0.9l14.5-17.7h8.5l-15.6,18.9c-0.4,0.5-0.4,1.3,0,1.8l18.2,21.2H353.2z"/>
		<path style="fill:#E6E3DA;stroke:#E6E3DA;stroke-miterlimit:10;" d="M377.8,47.4c-0.8,0-1.3,0.8-1.3,1.4c0,5.3,4.4,7.1,7.1,7.1
			c2.9,0,4.8-0.7,6.8-2.8l4.5,2.3c-2.8,3.8-6.9,5.4-12.1,5.4c-7.5,0-13.5-6-13.5-13.3c0-7.3,6-13.3,13.5-13.3
			c7.6,0,13.1,4.4,13.1,13.3H377.8z M388.3,44.8c0.5,0,1.5-0.3,1.3-1.5c-0.5-3.6-3.1-5.6-6.4-5.6c-3.8,0-6.3,2.5-6.5,5.7
			c0,0.7,0.4,1.4,1.3,1.4H388.3z"/>
		<path style="fill:#E6E3DA;stroke:#E6E3DA;stroke-miterlimit:10;" d="M432.8,34.9l-19.8,39h-7.8l8.3-16.4c0.2-0.4,0.2-0.9,0-1.3
			l-11.7-21.4h7.7l7.1,13.5c0,0,1.3,2.3,2.3-0.1l6.1-13.4H432.8z"/>
	</g>
</g>
</svg>
