<svg xmlns:sketch="http://www.bohemiancoding.com/sketch/ns" xmlns="http://www.w3.org/2000/svg" xmlns:xlink="http://www.w3.org/1999/xlink" height="58px" width="190px" version="1.1" viewBox="0 0 190 58"><!-- Generator: Sketch 3.2.2 (9983) - http://www.bohemiancoding.com/sketch -->
 <title>pyrus_logo</title>
 <desc>Created with Sketch.</desc>
 <defs>
  <path id="path-1" d="m0 0.56804h189.56v57.396h-189.56"/>
 </defs>
 <g id="Page-1" fill-rule="evenodd" sketch:type="MSPage" fill="none">
  <g id="Desktop-HD" transform="translate(-130 -21)" sketch:type="MSArtboardGroup">
   <g id="pyrus_logo" transform="translate(130 21)" sketch:type="MSLayerGroup">
    <path id="Fill-1" sketch:type="MSShapeGroup" fill="#fff" d="m169.12 14.078c8.35 0 15.12 6.752 15.12 15.082s-6.77 15.083-15.12 15.083-15.12-6.753-15.12-15.083 6.77-15.082 15.12-15.082"/>
    <path id="Fill-2" sketch:type="MSShapeGroup" fill="#EAB929" d="m169.12 19.389c-5.4 0-9.8 4.384-9.8 9.771 0 5.389 4.4 9.771 9.8 9.771s9.79-4.382 9.79-9.771c0-5.387-4.39-9.771-9.79-9.771m0 30.164c-11.27 0-20.44-9.148-20.44-20.393s9.17-20.392 20.44-20.392c11.27 0.0002 20.44 9.147 20.44 20.392s-9.17 20.393-20.44 20.393"/>
    <path id="Fill-3" sketch:type="MSShapeGroup" fill="#EAB929" d="m165.42 26.459c0-1.787 1.42-3.342 3.75-3.342 1.49 0 2.68 0.496 3.41 1.275l-1.43 1.985c-0.51-0.48-0.89-0.777-1.75-0.777-0.73 0-1.16 0.33-1.16 0.859 0 1.92 4.84 1.456 4.84 5.227 0 2.018-1.74 3.409-3.98 3.409-1.56 0-3.37-0.662-3.93-1.902l1.51-1.805c0.66 0.844 1.67 1.225 2.49 1.225 0.69 0 1.09-0.346 1.09-0.893 0-1.735-4.84-1.523-4.84-5.261"/>
    <g id="Group-7">
     <mask id="mask-2" sketch:name="Clip 5" fill="white">
      <use xlink:href="#path-1"/>
     </mask>
     <path id="Fill-4" sketch:type="MSShapeGroup" fill="#fff" mask="url(#mask-2)" d="m133.56 50.789l-10.85-10.814c-5.98-5.973-5.98-15.657 0-21.63 5.99-5.972 15.7-5.972 21.69 0 5.98 5.973 5.98 15.657 0 21.63l-10.84 10.814"/>
     <path id="Fill-6" sketch:type="MSShapeGroup" fill="#13AF9F" mask="url(#mask-2)" d="m133.56 18.963c-2.73 0-5.3 1.062-7.23 2.987-1.93 1.927-2.99 4.486-2.99 7.21s1.06 5.284 2.99 7.21l7.23 7.21 7.22-7.21c1.93-1.926 2.99-4.486 2.99-7.21s-1.06-5.283-2.99-7.21c-1.93-1.925-4.49-2.987-7.22-2.987m0 39.037l-14.46-14.42c-3.86-3.851-5.99-8.973-5.99-14.42 0-5.446 2.13-10.568 5.99-14.42 3.86-3.85 9-5.9718 14.46-5.9718 5.45 0 10.59 2.1218 14.45 5.9718 3.86 3.852 5.99 8.974 5.99 14.42 0 5.447-2.13 10.569-5.99 14.42l-14.45 14.42"/>
    </g>
    <path id="Fill-8" sketch:type="MSShapeGroup" fill="#13AF9F" d="m138.43 31.255c0 3.542-2.25 4.981-4.74 4.981-2.98 0-5.06-1.703-5.06-5.097v-6.682h2.66v6.121c0 1.802 0.55 3.175 2.4 3.175 1.61 0 2.09-1.174 2.09-3.027v-6.269h2.65v6.798"/>
    <path id="Fill-9" sketch:type="MSShapeGroup" fill="#fff" d="m115.83 29.16l-21.133 21.083-21.133-21.083 21.133-21.082 21.133 21.082"/>
    <path id="Fill-10" sketch:type="MSShapeGroup" fill="#EAB929" d="m94.697 0.56804l-28.661 28.593 28.661 28.591 28.663-28.591-28.663-28.593v0.00004zm-13.605 28.593l13.605-13.573 13.603 13.573-13.603 13.572-13.605-13.572z"/>
    <path id="Fill-11" sketch:type="MSShapeGroup" fill="#EAB929" d="m93.226 25.347v2.564h0.962c1.012 0 1.809-0.364 1.809-1.34 0-0.644-0.333-1.256-1.608-1.256-0.4 0-0.615 0.016-1.163 0.032m-2.654 9.1v-11.581c0.647 0 3.616-0.033 3.947-0.033 3.169 0 4.296 1.571 4.296 3.705 0 2.151-1.328 3.027-1.956 3.343l3.381 4.566h-3.216l-2.819-4.054h-0.979v4.054h-2.654"/>
    <path id="Fill-12" sketch:type="MSShapeGroup" fill="#fff" d="m56.227 13.89c8.35 0 15.119 6.832 15.119 15.261 0 8.431-6.769 15.262-15.119 15.262-8.348 0-15.117-6.831-15.117-15.262 0-8.429 6.769-15.261 15.117-15.261"/>
    <path id="Fill-13" sketch:type="MSShapeGroup" fill="#13AF9F" d="m56.227 19.263c-5.399 0-9.793 4.435-9.793 9.888 0 5.452 4.394 9.888 9.793 9.888 5.402 0 9.795-4.436 9.795-9.888 0-5.453-4.393-9.888-9.795-9.888m0 30.525c-11.27 0-20.44-9.259-20.44-20.637 0-11.379 9.17-20.635 20.44-20.635 11.272-0.0002 20.441 9.256 20.441 20.635 0 11.378-9.169 20.637-20.441 20.637"/>
    <path id="Fill-14" sketch:type="MSShapeGroup" fill="#13AF9F" d="m57.439 30.757v4.771h-2.654v-4.771l-4.079-6.948h3.035l2.488 4.437 2.454-4.437h2.868l-4.112 6.948"/>
    <path id="Fill-15" sketch:type="MSShapeGroup" fill="#fff" d="m20.441 50.538l-10.84-10.815c-5.9874-5.974-5.9874-15.657-0.0003-21.631 5.9873-5.971 15.692-5.971 21.68 0 5.987 5.974 5.987 15.657 0 21.631l-10.84 10.815"/>
    <path id="Fill-16" sketch:type="MSShapeGroup" fill="#EAB929" d="m20.441 18.711c-2.731 0-5.297 1.062-7.227 2.987-1.931 1.927-2.994 4.486-2.994 7.21s1.063 5.283 2.994 7.21l7.227 7.209 7.228-7.209c1.93-1.927 2.992-4.486 2.992-7.21s-1.062-5.283-2.992-7.21c-1.931-1.925-4.499-2.987-7.228-2.987m0 39.037l-14.454-14.421c-3.861-3.851-5.987-8.972-5.987-14.419 0-5.448 2.126-10.569 5.9865-14.42s8.9945-5.9722 14.454-5.9722c5.461 0 10.595 2.1212 14.455 5.9722 3.861 3.851 5.986 8.972 5.986 14.42 0 5.447-2.125 10.568-5.986 14.419l-14.454 14.421"/>
    <path id="Fill-17" sketch:type="MSShapeGroup" fill="#EAB929" d="m19.474 25.681v2.648c0.382 0.049 0.83 0.081 1.211 0.081 0.697 0 1.559-0.297 1.559-1.422 0-1.026-0.664-1.34-1.608-1.34-0.349 0-0.614 0.016-1.162 0.033m-2.653 9.099v-11.581c0.648 0 2.653-0.033 3.549-0.033 3.533 0 4.693 1.837 4.693 3.838 0 2.069-1.609 3.889-4.295 3.889-0.248 0-0.879 0-1.294-0.049v3.936h-2.653"/>
   </g>
  </g>
 </g>
</svg>